<?xml version="1.0" standalone="no"?>
<!DOCTYPE svg PUBLIC "-//W3C//DTD SVG 1.1//EN" "http://www.w3.org/Graphics/SVG/1.1/DTD/svg11.dtd" >
<svg xmlns="http://www.w3.org/2000/svg">
<metadata>Generated by IcoMoon</metadata>
<defs>
<font id="icomoon" horiz-adv-x="1024">
<font-face units-per-em="1024" ascent="960" descent="-64" />
<missing-glyph horiz-adv-x="1024" />
<glyph unicode="&#x20;" horiz-adv-x="512" d="" />
<glyph unicode="&#xe900;" glyph-name="checked-1" d="M994.72 820.010c-15.064 15.090-39.506 15.116-54.57 0.064l-462.986-461.764-167.044 181.426c-14.434 15.668-38.838 16.684-54.532 2.252-15.682-14.434-16.686-38.85-2.252-54.532l194.252-210.962c7.114-7.732 17.070-12.222 27.568-12.44 0.282-0.012 0.554-0.012 0.824-0.012 10.202 0 20.016 4.052 27.246 11.256l491.418 490.13c15.102 15.050 15.128 39.492 0.076 54.582zM985.406 486.594c-21.316 0-38.592-17.276-38.592-38.594 0-239.766-195.048-434.814-434.814-434.814-239.752 0-434.814 195.048-434.814 434.814 0 239.752 195.062 434.814 434.814 434.814 21.316 0 38.594 17.276 38.594 38.592 0 21.318-17.278 38.594-38.594 38.594-282.32 0-512-229.68-512-512 0-282.308 229.68-512 512-512 282.308 0 512 229.692 512 512 0 21.316-17.276 38.594-38.594 38.594z" />
<glyph unicode="&#xe901;" glyph-name="ux" d="M299.106 895.014c-2.010 2.042-4.794 3.128-7.662 2.972-2.862-0.152-5.52-1.526-7.3-3.772l-230-290c-1.696-2.138-2.444-4.878-2.070-7.582s1.836-5.138 4.048-6.738c1.758-1.272 175.858-128.95 175.858-281.896 0-153.694-145.358-291.32-146.826-292.692-3.446-3.22-4.174-8.41-1.748-12.454 1.848-3.078 5.14-4.856 8.576-4.856 1.078 0 2.168 0.174 3.234 0.54 3.944 1.35 97.718 33.924 195.424 110.334 57.528 44.988 104.252 95.848 138.878 151.164 43.412 69.354 67.786 145.86 72.444 227.392 0.004 0.074 0.008 0.146 0.010 0.22 0.070 2.012 1.446 50.134-22.996 124.714-22.382 68.31-71.758 172.794-179.87 282.654zM481.986 488.428c-10.148-176.752-116.086-295.18-203.182-363.42-55.706-43.644-111.060-72.958-147.54-89.812 12.92 14.966 28.406 34.334 43.978 57.172 35.006 51.344 76.738 130.432 76.738 215.632 0 67.84-31.954 140.978-92.408 211.508-34.268 39.98-68.166 68.292-83.42 80.27l216.588 273.090c99.51-103.668 145.644-201.314 166.876-265.652 23.138-70.108 22.42-116.584 22.37-118.788zM948.99 612.364c-22.382 68.306-71.76 172.79-179.872 282.65-2.010 2.044-4.812 3.132-7.66 2.972-2.864-0.152-5.522-1.526-7.302-3.772l-230-290c-1.696-2.138-2.442-4.878-2.068-7.582s1.836-5.138 4.046-6.738c1.758-1.272 175.858-128.95 175.858-281.896 0-153.694-145.358-291.32-146.826-292.692-3.446-3.22-4.174-8.41-1.746-12.454 1.848-3.078 5.138-4.856 8.574-4.856 1.078 0 2.17 0.174 3.234 0.54 3.946 1.35 97.718 33.924 195.424 110.334 57.528 44.988 104.254 95.848 138.878 151.164 43.412 69.354 67.786 145.86 72.446 227.392 0.004 0.074 0.008 0.146 0.010 0.22 0.072 2.016 1.446 50.138-22.996 124.718zM952 488.428c-10.148-176.752-116.086-295.18-203.182-363.42-55.706-43.644-111.062-72.958-147.542-89.812 12.922 14.966 28.406 34.334 43.976 57.172 35.008 51.344 76.738 130.432 76.738 215.632 0 67.84-31.954 140.978-92.408 211.508-34.268 39.98-68.166 68.292-83.418 80.27l216.59 273.090c99.51-103.668 145.642-201.314 166.876-265.652 23.138-70.108 22.422-116.584 22.37-118.788z" />
<glyph unicode="&#xe902;" glyph-name="quotation" d="M384 832h-288c-52.938 0-96-43.062-96-96v-288c0-52.938 43.062-96 96-96h129.172l-48.578-249.891c-1.828-9.391 0.641-19.094 6.719-26.469s15.125-11.641 24.688-11.641h103.672c27.828 0 52.563 18.203 60.984 44.563l93.156 220.969c0.531 1.266 0.984 2.563 1.344 3.875 8.531 30.656 12.844 62.36 12.844 94.219v308.375c0 52.938-43.062 96-96 96zM928 832h-288c-52.938 0-96-43.062-96-96v-288c0-52.938 43.062-96 96-96h129.188l-48.594-249.891c-1.844-9.391 0.625-19.094 6.719-26.469 6.062-7.375 15.125-11.641 24.687-11.641h103.687c27.844 0 52.563 18.203 60.969 44.578l93.156 220.953c0.531 1.266 0.969 2.563 1.344 3.875 8.532 30.687 12.844 62.39 12.844 94.219v308.375c0 52.938-43.062 96-96 96z" />
<glyph unicode="&#xe903;" glyph-name="minus" d="M984 488h-944c-22.092 0-40-17.908-40-40s17.908-40 40-40h944c22.092 0 40 17.908 40 40s-17.908 40-40 40z" />
<glyph unicode="&#xe904;" glyph-name="left" d="M527.884 443.67l374.155 374.154c11.877 11.878 11.877 31.137 0 43.015s-31.137 11.878-43.015 0l-392.815-392.815c-6.682-6.683-9.605-15.702-8.769-24.427-0.795-8.686 2.132-17.646 8.782-24.295l392.815-392.815c11.877-11.878 31.136-11.878 43.014 0s11.878 31.136 0 43.014zM183.617 443.67l374.154 374.154c11.878 11.878 11.878 31.137 0 43.015s-31.137 11.878-43.014 0l-392.815-392.815c-6.682-6.683-9.605-15.701-8.769-24.427-0.795-8.685 2.132-17.646 8.781-24.295l392.815-392.815c11.878-11.878 31.137-11.878 43.015 0s11.877 31.136 0 43.014z" />
<glyph unicode="&#xe905;" glyph-name="next" d="M496.116 452.33l-374.155-374.154c-11.877-11.878-11.877-31.137 0-43.015s31.137-11.878 43.015 0l392.815 392.815c6.682 6.683 9.605 15.702 8.769 24.427 0.795 8.686-2.132 17.646-8.782 24.295l-392.815 392.815c-11.877 11.878-31.136 11.878-43.014 0s-11.878-31.136 0-43.014zM840.383 452.33l-374.154-374.154c-11.878-11.878-11.878-31.137 0-43.015s31.137-11.878 43.014 0l392.815 392.815c6.682 6.683 9.605 15.701 8.769 24.427 0.795 8.685-2.132 17.646-8.781 24.295l-392.815 392.815c-11.878 11.878-31.137 11.878-43.015 0s-11.877-31.136 0-43.014z" />
<glyph unicode="&#xe906;" glyph-name="solidarity" d="M384 301.168v154.832c0 30.88-25.12 56-56 56-8.624 0-16.704-2.128-24-5.616v93.616c0 30.88-25.12 56-56 56-8.624 0-16.704-2.128-24-5.616v45.616c0 30.88-25.12 56-56 56-26 0-47.744-17.92-54-41.984-9.888 6.24-21.488 9.984-34 9.984-35.296 0-64-28.704-64-64v-272c0-2.672 0.672-5.312 1.952-7.664l96-176c0.736-1.328 1.664-2.576 2.736-3.648l125.264-125.264c8.928-8.928 14.048-21.296 14.048-33.936v-69.488c0-8.832 7.168-16 16-16h192c8.832 0 16 7.168 16 16v198.768c0 20.336-7.648 39.728-21.52 54.592zM328 480c13.232 0 24-10.768 24-24v-120.544l-48 51.424v69.12c0 13.232 10.768 24 24 24zM248 624c13.232 0 24-10.768 24-24v-178.832l-10.816 11.584c-9.040 9.68-21.824 15.248-35.088 15.248h-2.096v152c0 13.232 10.768 24 24 24zM144 696c0 13.232 10.768 24 24 24s24-10.768 24-24v-260.448c-7.104-6.4-12.4-14.8-14.688-24.416l-33.312 42.4v202.464zM448-16h-160v53.488c0 21.36-8.32 41.456-23.424 56.56l-123.632 123.632-92.944 170.4v267.92c0 17.648 14.352 32 32 32s32-14.352 32-32v-208c0-3.584 1.2-7.056 3.424-9.888l176-224 25.152 19.76-108.576 138.208v27.92c0 8.816 7.184 16 16 16h2.096c4.416 0 8.672-1.856 11.696-5.072l197.312-211.392c8.304-8.928 12.896-20.56 12.896-32.768zM944 720c-12.512 0-24.112-3.744-34-9.984-6.256 24.064-28 41.984-54 41.984-30.88 0-56-25.12-56-56v-45.616c-7.296 3.488-15.376 5.616-24 5.616-30.88 0-56-25.12-56-56v-93.616c-7.296 3.488-15.376 5.616-24 5.616-30.88 0-56-25.12-56-56v-154.832l-74.48-79.808c-13.872-14.864-21.52-34.256-21.52-54.592v-198.768c0-8.832 7.168-16 16-16h192c8.832 0 16 7.168 16 16v69.488c0 12.64 5.12 24.992 14.048 33.936l125.264 125.264c1.072 1.072 2 2.32 2.736 3.648l96 176c1.28 2.352 1.952 4.992 1.952 7.664v272c0 35.296-28.704 64-64 64zM832 696c0 13.232 10.768 24 24 24s24-10.768 24-24v-242.464l-33.312-42.384c-2.288 9.616-7.584 18-14.688 24.416v164.432zM752 600c0 13.232 10.768 24 24 24s24-10.768 24-24v-152h-2.096c-13.264 0-26.048-5.568-35.088-15.248l-10.816-11.6v34.848zM672 456c0 13.232 10.768 24 24 24s24-10.768 24-24v-69.12l-48-51.424zM976 388.080l-92.944-170.384-123.632-123.632c-15.104-15.12-23.424-35.2-23.424-56.576v-53.488h-160v182.768c0 12.208 4.592 23.84 12.912 32.752l197.312 211.392c3.008 3.232 7.264 5.088 11.68 5.088h2.096c8.816 0 16-7.184 16-16v-27.92l-108.576-138.192 25.152-19.76 176 224c2.224 2.816 3.424 6.288 3.424 9.872v208c0 17.648 14.352 32 32 32s32-14.352 32-32zM751.712 812.192c-2.688 43.168-24.336 82.064-59.36 106.72-51.12 35.968-120.176 32.832-167.936-7.616l-12.416-10.528-12.432 10.528c-47.76 40.448-116.8 43.584-167.936 7.616-35.024-24.656-56.672-63.552-59.36-106.72-2.704-43.296 14-84.72 45.84-113.664l183.12-166.544c3.056-2.768 6.912-4.16 10.768-4.16s7.712 1.392 10.768 4.16l183.12 166.544c31.824 28.944 48.528 70.368 45.824 113.664zM512 565.424l-172.352 156.752c-24.608 22.384-37.52 54.464-35.424 88 2.080 33.424 18.8 63.52 45.84 82.544 18.224 12.832 39.408 19.168 60.56 19.168 24.352 0 48.656-8.4 68.256-25.024l22.768-19.296c5.968-5.040 14.72-5.040 20.688 0l22.784 19.312c36.624 31.024 89.616 33.456 128.816 5.856 27.040-19.024 43.76-49.12 45.84-82.544 2.096-33.552-10.816-65.632-35.424-88z" />
<glyph unicode="&#xe907;" glyph-name="facebook-app-symbol" d="M591.302-64v467.060h156.71l23.511 182.076h-180.221v116.229c0 52.699 14.574 88.612 90.229 88.612l96.335 0.040v162.855c-16.66 2.165-73.847 7.129-140.407 7.129-138.987 0-234.141-84.837-234.141-240.603v-134.261h-157.185v-182.076h157.185v-467.060h187.983z" />
<glyph unicode="&#xe908;" glyph-name="check" d="M879.514 718.986c17.916-15.677 19.541-42.987 3.605-60.674l-448.593-497.911c-16.019-17.779-43.523-18.91-60.946-2.509l-259.585 244.378c-16.189 15.241-17.738 40.636-3.849 57.997 15.326 19.157 43.866 21.794 62.106 5.389l201.403-181.158c17.503-15.744 44.45-14.336 60.219 3.145l385.856 427.815c15.612 17.312 42.24 18.882 59.785 3.529z" />
<glyph unicode="&#xe909;" glyph-name="instagram" d="M746.811 960h-469.624c-152.843 0-277.187-124.344-277.187-277.187v-469.632c0-152.836 124.344-277.179 277.187-277.179h469.632c152.836 0 277.179 124.344 277.179 277.179v469.632c0 152.843-124.344 277.187-277.187 277.187zM963.967 213.181c0-119.734-97.414-217.148-217.156-217.148h-469.624c-119.742 0-217.156 97.414-217.156 217.148v469.632c0 119.742 97.414 217.156 217.156 217.156h469.632c119.734 0 217.148-97.414 217.148-217.156zM511.999 727.993c-154.39 0-279.992-125.601-279.992-279.992s125.601-279.992 279.992-279.992 279.992 125.601 279.992 279.992-125.601 279.992-279.992 279.992zM511.999 228.040c-121.281 0-219.961 98.672-219.961 219.961 0 121.281 98.68 219.961 219.961 219.961 121.289 0 219.961-98.68 219.961-219.961 0-121.289-98.672-219.961-219.961-219.961zM798.686 827.43c-45.625 0-82.734-37.117-82.734-82.734 0-45.625 37.109-82.742 82.734-82.742s82.742 37.117 82.742 82.742-37.117 82.734-82.742 82.734zM798.686 721.993c-12.516 0-22.703 10.187-22.703 22.703 0 12.523 10.187 22.703 22.703 22.703 12.523 0 22.711-10.18 22.711-22.703 0-12.516-10.187-22.703-22.711-22.703z" />
<glyph unicode="&#xe90a;" glyph-name="paper-plane" d="M939.040 871.2c-8.023 5.811-18.062 9.296-28.915 9.296-7.75 0-15.085-1.777-21.62-4.945l0.295 0.129-796.32-377.28c-16.769-8.388-28.081-25.433-28.081-45.119 0-19.561 11.169-36.514 27.478-44.829l0.285-0.132 271.518-131.040 53.12-249.12c1.721-7.245 8.136-12.552 15.791-12.552 4.693 0 8.92 1.994 11.88 5.181l0.009 0.010 5.28 5.92c15.674 17.923 55.053 62.161 71.36 80.48 2.403 2.78 3.867 6.431 3.867 10.423 0 8.826-7.155 15.981-15.981 15.981-4.629 0-8.798-1.968-11.717-5.113l-0.009-0.010c-13.813-15.445-42.025-47.34-55.839-62.72 0 0-44.708 209.446-44.64 209.6-0.144 0.865-0.226 1.863-0.226 2.879 0 6.179 3.033 11.649 7.692 15.003l0.055 0.038 381.118 403.2c2.91 2.965 6.959 4.803 11.438 4.803 8.848 0 16.020-7.173 16.020-16.020 0-4.121-1.556-7.878-4.112-10.717l0.013 0.014-379.039-400.96 6.72-31.36 371.84-179.36c6.276-3.129 13.67-4.96 21.492-4.96 0.038 0 0.076 0 0.114 0h-0.006c25.548 0.128 46.573 19.325 49.575 44.079l0.024 0.241 80.161 722.88c0.213 1.722 0.335 3.716 0.335 5.738 0 16.616-8.223 31.312-20.822 40.239l-0.153 0.103z" />
<glyph unicode="&#xe90b;" glyph-name="send" d="M18.94 575.023c-11.078-4.43-18.496-14.98-18.922-26.902-0.424-11.926 6.23-22.976 16.964-28.18l353.093-171.246 611.315 611.301-962.45-384.973zM412.687 306.081l171.248-353.095c5.050-10.412 15.596-16.982 27.104-16.982 0.358 0 0.714 0.006 1.076 0.020 11.924 0.424 22.474 7.842 26.906 18.92l384.979 962.444-611.313-611.307z" />
<glyph unicode="&#xe90c;" glyph-name="down" d="M947.338 623.104l-386.352-410.499c-26.56-28.221-71.408-28.221-97.968 0l-386.355 410.499c-29.027 30.845-7.162 81.456 35.194 81.456h800.285c42.358 0 64.224-50.611 35.197-81.456z" />
<glyph unicode="&#xe90d;" glyph-name="left-arrow" d="M6.768 431.593v0l232.722-232.724c8.36-9.762 23.052-10.9 32.813-2.538 9.762 8.36 10.9 23.052 2.538 32.813-0.78 0.91-1.628 1.76-2.538 2.538l-192.927 193.161h921.352c12.852 0 23.272 10.42 23.272 23.274s-10.42 23.272-23.272 23.272h-921.352l192.927 192.927c9.762 8.36 10.9 23.052 2.538 32.813s-23.052 10.9-32.813 2.538c-0.91-0.78-1.76-1.628-2.538-2.538l-232.724-232.724c-9.022-9.074-9.022-23.734 0.002-32.811z" />
<glyph unicode="&#xe90e;" glyph-name="right-arrow" d="M1017.232 464.407v0l-232.722 232.724c-8.36 9.762-23.052 10.9-32.813 2.538-9.762-8.36-10.9-23.052-2.538-32.813 0.78-0.91 1.628-1.76 2.538-2.538l192.927-193.161h-921.352c-12.852 0-23.272-10.42-23.272-23.274s10.42-23.272 23.272-23.272h921.352l-192.927-192.927c-9.762-8.36-10.9-23.052-2.538-32.813s23.052-10.9 32.813-2.538c0.91 0.78 1.76 1.628 2.538 2.538l232.724 232.724c9.022 9.074 9.022 23.734-0.002 32.811z" />
<glyph unicode="&#xe90f;" glyph-name="youtube" d="M984.087 746.463c-36.963 43.94-105.208 61.863-235.54 61.863h-473.105c-133.315 0-202.716-19.079-239.54-65.86-35.903-45.611-35.903-112.815-35.903-205.827v-177.281c0-180.194 42.598-271.684 275.443-271.684h473.108c113.023 0 175.652 15.816 216.17 54.592 41.551 39.764 59.28 104.689 59.28 217.091v177.281c0 98.089-2.778 165.69-39.913 209.824zM657.411 423.523l-214.835-112.28c-4.803-2.51-10.055-3.756-15.301-3.756-5.939 0-11.865 1.599-17.114 4.776-9.883 5.989-15.918 16.701-15.918 28.256v223.84c0 11.535 6.018 22.237 15.882 28.229 9.867 5.992 22.138 6.402 32.375 1.083l214.835-111.557c10.93-5.675 17.794-16.959 17.811-29.27 0.013-12.321-6.821-23.621-17.735-29.323z" />
<glyph unicode="&#xe910;" glyph-name="chevron-left" d="M672 800c8.184 0 16.376-3.128 22.624-9.376 12.504-12.504 12.504-32.752 0-45.248l-297.376-297.376 297.376-297.376c12.504-12.504 12.504-32.752 0-45.248s-32.752-12.504-45.248 0l-320 320c-12.504 12.504-12.504 32.752 0 45.248l320 320c6.248 6.248 14.44 9.376 22.624 9.376z" />
<glyph unicode="&#xe911;" glyph-name="chevron" d="M352 96c-8.184 0-16.376 3.128-22.624 9.376-12.504 12.504-12.504 32.752 0 45.248l297.376 297.376-297.376 297.376c-12.504 12.504-12.504 32.752 0 45.248s32.752 12.504 45.248 0l320-320c12.504-12.504 12.504-32.752 0-45.248l-320-320c-6.248-6.248-14.44-9.376-22.624-9.376z" />
<glyph unicode="&#xe912;" glyph-name="right-chevron" d="M281.28 470.72l416 416c5.8 5.846 13.837 9.466 22.72 9.466s16.92-3.619 22.718-9.463l0.002-0.002c5.846-5.8 9.466-13.837 9.466-22.72s-3.619-16.92-9.463-22.718l-393.602-393.282 393.6-393.28c5.815-5.815 9.411-13.847 9.411-22.72 0-17.745-14.386-32.131-32.131-32.131-8.873 0-16.905 3.596-22.72 9.411l-416 416c-5.846 5.8-9.466 13.837-9.466 22.72s3.619 16.92 9.463 22.718l0.002 0.002z" />
<glyph unicode="&#xe913;" glyph-name="right-chevron1" d="M742.72 425.28l-416-416c-5.8-5.846-13.837-9.466-22.72-9.466s-16.92 3.619-22.718 9.463l-0.002 0.002c-5.846 5.8-9.466 13.837-9.466 22.72s3.619 16.92 9.463 22.718l393.602 393.282-393.6 393.28c-5.815 5.815-9.411 13.847-9.411 22.72 0 17.745 14.386 32.131 32.131 32.131 8.873 0 16.905-3.596 22.72-9.411l416-416c5.846-5.8 9.466-13.837 9.466-22.72s-3.619-16.92-9.463-22.718l-0.002-0.002z" />
<glyph unicode="&#xe914;" glyph-name="behance" d="M421.283 478.723c21.25 10.689 37.315 22.594 48.324 35.459 19.586 23.17 29.25 53.892 29.25 91.976 0 37.059-9.665 68.742-28.994 95.304-32.259 43.268-86.855 65.413-164.045 66.565h-305.817v-624.243h285.143c32.131 0 61.893 2.752 89.415 8.385 27.522 5.696 51.332 16.129 71.494 31.363 17.921 13.249 32.899 29.698 44.804 49.092 18.818 29.314 28.226 62.533 28.226 99.528 0 35.843-8.257 66.373-24.642 91.464-16.577 25.090-40.899 43.46-73.158 55.109zM126.154 659.601h137.739c30.274 0 55.237-3.264 74.822-9.729 22.658-9.409 33.987-28.546 33.987-57.733 0-26.178-8.641-44.484-25.73-54.788-17.217-10.305-39.555-15.489-66.949-15.489h-153.869v137.739zM343.964 263.089c-15.233-7.361-36.675-11.009-64.133-11.009h-153.677v166.478h155.789c27.138-0.192 48.26-3.776 63.365-10.497 26.882-12.161 40.259-34.435 40.259-67.013 0-38.403-13.825-64.261-41.603-77.958zM654.39 738.904h271.19v-77.702h-271.19v77.702zM1019.796 432.255c-5.632 36.163-18.049 67.974-37.379 95.432-21.186 31.107-48.068 53.892-80.775 68.294-32.579 14.465-69.254 21.698-110.089 21.634-68.55 0-124.234-21.442-167.31-64.005-42.948-42.692-64.453-104.073-64.453-184.079 0-85.319 23.746-146.956 71.494-184.783 47.556-37.891 102.472-56.773 164.814-56.773 75.462 0 134.155 22.466 176.078 67.27 26.818 28.29 41.987 56.133 45.316 83.463h-124.938c-7.233-13.505-15.617-24.066-25.218-31.747-17.409-14.081-40.067-21.122-67.846-21.122-26.434 0-48.836 5.824-67.526 17.409-30.851 18.562-46.98 51.076-49.028 97.352h340.956c0.512 39.875-0.768 70.534-4.096 91.656zM686.008 420.286c4.48 30.018 15.361 53.828 32.643 71.43 17.281 17.537 41.731 26.37 73.030 26.434 28.866 0 52.996-8.257 72.646-24.834 19.394-16.705 30.338-40.963 32.579-73.030h-210.897z" />
<glyph unicode="&#xe915;" glyph-name="up-arrow" d="M12.512 183.179c16.682-16.682 43.647-16.682 60.329 0l439.161 439.159 439.159-439.159c16.682-16.682 43.647-16.682 60.329 0s16.682 43.647 0 60.329l-469.324 469.324c-8.32 8.32-19.242 12.502-30.165 12.502s-21.846-4.182-30.165-12.502l-469.324-469.324c-16.68-16.682-16.68-43.647 0.002-60.329z" />
<glyph unicode="&#xe916;" glyph-name="down-arrow1" d="M1011.488 712.821c-16.682 16.682-43.647 16.682-60.329 0l-439.161-439.159-439.159 439.159c-16.682 16.682-43.647 16.682-60.329 0s-16.682-43.647 0-60.329l469.324-469.324c8.32-8.32 19.242-12.502 30.165-12.502s21.846 4.182 30.165 12.502l469.324 469.324c16.68 16.682 16.68 43.647-0.002 60.329z" />
<glyph unicode="&#xe917;" glyph-name="twitter" d="M1024 765.504c-38.080-16.704-78.656-27.776-120.96-33.152 43.52 25.984 76.736 66.816 92.352 116.032-40.576-24.192-85.376-41.28-133.12-50.816-38.528 41.024-93.44 66.432-153.344 66.432-116.224 0-209.792-94.336-209.792-209.984 0-16.64 1.408-32.64 4.864-47.872-174.528 8.512-328.96 92.16-432.704 219.584-18.112-31.424-28.736-67.392-28.736-106.112 0-72.704 37.44-137.152 93.248-174.464-33.728 0.64-66.816 10.432-94.848 25.856 0-0.64 0-1.472 0-2.304 0-102.016 72.768-186.752 168.192-206.272-17.088-4.672-35.712-6.912-55.040-6.912-13.44 0-27.008 0.768-39.744 3.584 27.2-83.136 104.384-144.256 196.16-146.24-71.424-55.872-162.112-89.536-260.288-89.536-17.216 0-33.728 0.768-50.24 2.88 92.992-59.968 203.2-94.208 322.048-94.208 386.304 0 597.504 320 597.504 597.376 0 9.28-0.32 18.24-0.768 27.136 41.664 29.568 76.672 66.496 105.216 108.992z" />
<glyph unicode="&#xe918;" glyph-name="star" d="M1024 564.368l-372.078 24.462-140.126 352.032-140.126-352.032-371.67-24.462 285.068-242.052-93.544-367.178 320.272 202.442 320.274-202.442-93.544 367.178z" />
<glyph unicode="&#xe919;" glyph-name="cancel" d="M1011.842 6.868l-441.133 441.133 441.129 441.129c16.212 16.21 16.212 42.496 0 58.708-16.21 16.212-42.496 16.212-58.708 0l-441.129-441.129-441.133 441.129c-16.21 16.212-42.496 16.212-58.708 0-16.212-16.21-16.212-42.496 0-58.708l441.131-441.129-441.131-441.133c-16.212-16.212-16.212-42.496 0-58.708 16.21-16.21 42.496-16.212 58.708 0l441.133 441.133 441.133-441.133c16.21-16.21 42.496-16.212 58.708 0s16.212 42.496 0 58.708z" />
<glyph unicode="&#xe91a;" glyph-name="delivery-service" d="M410.43 603.598c0-8.836-7.164-16-16-16s-16 7.164-16 16v164.028c0 6.462 3.832 12.030 9.348 14.554l241.878 139.648c5.17 2.972 11.312 2.72 16.096-0.128l242.766-140.158c5.054-2.864 8.182-8.104 8.174-13.916h0.068v-280.78c0-6.328-3.674-11.798-9.006-14.394l-241.214-139.266c-5.882-3.678-12.014-3.676-17.896 0.004l-234.39 135.326c-0.27 0.156-0.532 0.32-0.79 0.49h-148.746c-8.802 0-15.938 7.136-15.938 15.938s7.136 15.938 15.938 15.938h250.382c8.802 0 15.938-7.136 15.938-15.938s-7.136-15.938-15.938-15.938h-37.846l164.34-94.882v243.952l-56.68 32.724v-64.56h-0.036c0.010-12.134-13.222-20.024-23.964-13.812l-64.796 37.41c-5.332 2.596-9.006 8.066-9.006 14.394v83.036l-56.682 32.724zM462.292 571.536c8.802 0 15.938-7.136 15.938-15.938s-7.136-15.938-15.938-15.938h-148.648c-8.802 0-15.938 7.136-15.938 15.938s7.136 15.938 15.938 15.938h148.648zM183.582 266.112l142.088 82.072c26.202 15.128 54.776 18.91 83.98 11.086l214.5-57.476c43.176-11.568 62.434-65.736 48.85-103.164 13.338 3.95 27.102 10.286 41.724 18.728l145.898 84.234c32.196 18.588 70.478 11.508 96.070-5.718 15.568-10.48 28.664-26.15 30.952-44.482 2.23-17.868-5.546-35.454-28.006-48.438l-286.878-165.668c-26.202-15.126-54.776-18.908-83.98-11.084l-194.338 52.074c-21.174 5.674-40.852 3.1-59.792-7.834l-28.572-16.494 14.11-24.44c4.376-7.612 1.764-17.326-5.828-21.722l-58.102-33.582c-6.822-3.952-15.356-2.286-20.242 3.568l-196.274 234.67c-6.382 7.63-4.64 19.376 5.316 24.642l102.698 59.292c7.628 4.382 17.366 1.752 21.75-5.876zM149.862 260.8l-73.452-42.406 175.496-209.842 32.694 18.876zM489.332 198.128c-8.526 2.278-13.59 11.036-11.312 19.562s11.036 13.59 19.562 11.312l117.618-31.514c17.904-4.798 26.422 3.080 29.238 17.466 4.158 21.246-6.486 50.058-28.538 55.968l-214.5 57.476c-21.172 5.672-40.764 3.114-59.73-7.836l-0.016 0.028-142.14-82.066 90.634-156.982 28.626 16.528c26.226 15.14 54.714 18.908 83.916 11.084l194.338-52.074c21.17-5.672 40.766-3.114 59.73 7.836l286.91 165.612c13.978 8.182 15.282 16.88 7.628 27.322-14.402 19.644-49.566 30.69-74.8 16.122l-145.896-84.238c-40.034-23.114-79.402-34.976-123.648-23.12zM864.758 739.992l-211.164-121.916v-243.954l211.164 121.916zM515.004 716.408l33.91-19.578 211.27 121.978-33.912 19.58zM532.914 669.276l-33.804 19.516v-55.366l33.804-19.516zM792.078 800.43l-211.302-121.994 56.818-32.804 211.302 121.996zM483.078 734.84l211.302 121.996-56.786 32.784-211.302-121.994z" />
<glyph unicode="&#xe91b;" glyph-name="donation" d="M32.031 880.021v-287.937c-0.034-8.836 7.101-16.027 15.938-16.063h128.031c8.836 0.032 15.971 7.226 15.937 16.063v33.594c24.792-14.922 65.009-33.594 112.094-33.594h143.969c35.179 0 64.031 28.695 64.031 63.875s-28.852 64.032-64.031 64.032h-96.031v16.062c0 9.14 6.953 15.938 16.094 15.938h512c9.141 0 15.937-6.797 15.937-15.938v-288.062c0-9.141-6.797-15.938-15.937-15.938h-512c-9.141 0-16.094 6.796-16.094 15.938v96c-0.464 20.865-31.537 20.865-32 0v-96c0-26.315 21.779-47.969 48.094-47.969h512c26.315 0 47.937 21.654 47.937 47.969v288.062c0 26.315-21.622 47.938-47.937 47.938h-234.906l-107.844 77.031c-56.101 40.072-129.080 42.281-182.625 29.625l-162.75-38.468v27.843c-0.032 8.788-7.15 15.902-15.937 15.938h-128.797c-8.95-0.822-15.18-7.711-15.172-15.938zM518.75 835.021l71.375-51.031h-222.062c-26.315 0-48.094-21.623-48.094-47.938v-32c0.002-8.86 7.202-16.032 16.062-16.031l111.969-0.031c18.005 0 32.031-14.027 32.031-32.032s-14.027-32-32.031-32h-143.969c-54.234 0.001-99.173 30.551-112.094 40.157v155.281l170.437 40.188c52.009 12.263 114.355 5.479 156.375-24.563zM64.031 863.959h96.031v-255.938h-96.031zM542.375 719.99c-20.848-1.536-19.239-32.624 1.656-32h241.852c6.144-20.786 19.378-38.205 46.085-46.205v-99.881c-24.233-5.793-39.793-25.066-45.937-45.851h-324.18c-3.59 15.772-15.998 37.36-45.851 45.993 0.562 25.37-32.451 22.252-32 1.947v-15.938c-0.032-8.885 7.177-16.097 16.063-16.063 17.862 0 31.875-14.137 31.875-32 0.032-8.837 7.226-15.971 16.063-15.938h351.969c8.836-0.032 16.027 7.102 16.062 15.938 0 17.862 14.169 32 32.031 32 8.836 0.032 15.971 7.226 15.937 16.063v127.906c0.048 8.848-7.089 16.058-15.937 16.094-17.862 0-32.031 14.138-32.031 32-0.032 8.836-7.226 15.971-16.062 15.938h-255.938c-0.55 0.031-1.104 0.031-1.656 0zM624 655.958c-35.157 0-64.031-28.718-64.031-63.875s28.874-64.031 64.031-64.031c35.157 0 64 28.874 64 64.031s-28.843 63.875-64 63.875zM624 623.959c17.863 0 32-14.012 32-31.875s-14.137-32-32-32c-17.863 0-32.031 14.137-32.031 32s14.168 31.875 32.031 31.875zM653.25 5.397l-0.472-0.121 179.188 38.906v-28.125c-0.032-8.897 7.197-16.113 16.094-16.062h127.906c8.885-0.032 16.096 7.177 16.062 16.062v287.938c0.048 8.897-7.165 16.128-16.062 16.094h-127.906c-8.91 0.048-16.145-7.184-16.094-16.094v-33.5c-24.803 14.909-64.931 33.5-111.938 33.5h-175.997c-35.179 0-64-28.821-64-64s28.821-64.031 64-64.031h143.969c21.354 0 21.354 32.031 0 32.031h-143.969c-18.005 0-32 13.995-32 32s13.995 32 32 32h176c54.159 0 98.966-30.34 111.938-39.969v-155.125l-186-40.344c-0.157-0.032-0.314-0.060-0.472-0.121-28.346-7.089-102.691-13.618-156.531 24.813l-232.781 149.094c-14.116 9.040-21.63 28.909-12.344 44.093 11.073 18.104 34.293 13.822 47.406 10.156l136.75-38.219c20.838-6.283 29.697 25.364 8.625 30.813l-136.75 38.219c-36.145 10.102-67.62 2.395-83.719-24.969-17.845-30.33-6.089-68.572 22.781-87.062l231.766-148.406c65.668-46.878 146.897-38.51 182.547-29.594zM864 288.053h96.031v-256.063h-96.031c0.466 85.138 0 170.405 0 256.063z" />
<glyph unicode="&#xe91c;" glyph-name="crowdfunding" d="M970.974 264.585c11.837 12.223 19.133 28.905 19.133 47.291 0 37.561-30.449 68.011-68.011 68.011-17.631 0-33.694-6.709-45.778-17.712l0.054 0.049-108.834 72.892c0.29 5.325 0.461 10.803 0.461 16.486 0.034 1.663 0.053 3.624 0.053 5.589 0 103.329-53.506 194.161-134.324 246.301l-1.154 0.697c9.137 0.308 16.427 7.789 16.427 16.973 0 9.379-7.603 16.982-16.982 16.982-0.195 0-0.389-0.003-0.583-0.010l0.028 0.001h-31.164l67.004 78.097c5.178 6.003 8.332 13.88 8.332 22.493 0 1.335-0.076 2.653-0.223 3.948l0.015-0.158c-1.091 9.729-6.157 18.096-13.511 23.556l-0.091 0.065c-16.721 11.808-35.873 22.013-56.262 29.693l-1.765 0.583 2.748 6.912c1.628 3.838 2.575 8.301 2.575 12.985 0 14.954-9.645 27.655-23.054 32.222l-0.24 0.071c-22.088 7.247-47.51 11.426-73.907 11.426s-51.819-4.179-75.639-11.912l1.731 0.486c-13.607-4.661-23.214-17.342-23.214-32.266 0-4.61 0.917-9.006 2.578-13.016l-0.083 0.226 2.833-7.117c-22.154-8.283-41.305-18.51-58.832-30.884l0.805 0.539c-7.356-5.529-12.355-13.852-13.418-23.364l-0.014-0.153c-0.141-1.171-0.222-2.527-0.222-3.902 0-8.557 3.119-16.385 8.282-22.41l-0.039 0.047 67.004-78.165h-31.164c-0.165 0.006-0.36 0.009-0.555 0.009-9.369 0-16.965-7.595-16.965-16.965 0-9.174 7.282-16.648 16.382-16.955l0.028-0.001c-81.971-52.837-135.478-143.669-135.478-246.998 0-1.977 0.020-3.949 0.059-5.917l-0.005 0.294c0-5.683 0.171-11.162 0.461-16.486l-108.834-72.892c-11.983 10.765-27.913 17.349-45.381 17.349-37.571 0-68.028-30.457-68.028-68.028 0-18.223 7.165-34.773 18.833-46.985l-0.025 0.026c-31.829-17.769-53.003-51.234-53.026-89.648v-68.27c0-18.851 15.282-34.133 34.133-34.133v0h136.533c18.851 0 34.133 15.282 34.133 34.133v0 68.267c-0.023 38.417-21.197 71.883-52.508 89.385l-0.519 0.266c11.685 11.943 18.895 28.306 18.895 46.353 0 8.222-1.497 16.095-4.232 23.36l0.151-0.457 95.027 63.642c10.97-54.369 52.906-96.574 106.251-107.789l0.894-0.157-8.021-48.043c-30.835-6.865-53.546-33.987-53.546-66.413 0-18.262 7.203-34.841 18.923-47.052l-0.022 0.023c-31.829-17.769-53.003-51.234-53.026-89.648v-68.27c0-18.851 15.282-34.133 34.133-34.133v0h136.533c18.851 0 34.133 15.282 34.133 34.133v0 68.267c-0.023 38.417-21.197 71.883-52.508 89.385l-0.519 0.266c11.689 12.156 18.889 28.704 18.889 46.934 0 30.611-20.3 56.481-48.173 64.882l-0.48 0.124 7.134 42.667c27.542-3.526 59.405-5.539 91.738-5.539 6.348 0 12.678 0.078 18.988 0.232l-0.936-0.018c5.41-0.138 11.781-0.217 18.17-0.217 32.291 0 64.114 2.007 95.349 5.904l-3.729-0.379 7.134-42.667c-28.352-8.525-48.653-34.395-48.653-65.006 0-18.23 7.199-34.778 18.91-46.956l-0.021 0.022c-31.824-17.766-52.997-51.224-53.026-89.63v-68.271c0-18.851 15.282-34.133 34.133-34.133v0h136.533c18.851 0 34.133 15.282 34.133 34.133v0 68.267c-0.023 38.417-21.197 71.883-52.508 89.385l-0.519 0.266c11.698 12.188 18.9 28.767 18.9 47.029 0 32.426-22.71 59.549-53.093 66.329l-0.453 0.085-8.021 48.043c54.239 11.373 96.174 53.578 106.996 107.067l0.149 0.88 95.027-63.642c-2.585-6.809-4.081-14.681-4.081-22.903 0-18.047 7.21-34.41 18.907-46.365l-0.012 0.012c-31.829-17.769-53.003-51.234-53.026-89.648v-68.27c0-18.851 15.282-34.133 34.133-34.133v0h136.533c18.851 0 34.133 15.282 34.133 34.133v0 68.267c-0.023 38.417-21.197 71.883-52.508 89.385l-0.519 0.266zM170.667 106.667h-136.533v68.267c0 37.703 30.564 68.267 68.267 68.267s68.267-30.564 68.267-68.267v0zM68.267 311.467c0 18.851 15.282 34.133 34.133 34.133s34.133-15.282 34.133-34.133c0-18.851-15.282-34.133-34.133-34.133v0c-18.851 0-34.133 15.282-34.133 34.133v0zM443.733-29.867h-136.533v68.267c0 37.703 30.564 68.267 68.267 68.267s68.267-30.564 68.267-68.267v0zM409.6 174.933c0-18.851-15.282-34.133-34.133-34.133s-34.133 15.282-34.133 34.133c0 18.851 15.282 34.133 34.133 34.133v0c18.851 0 34.133-15.282 34.133-34.133v0zM716.8-29.867h-136.533v68.267c0 37.703 30.564 68.267 68.267 68.267s68.267-30.564 68.267-68.267v0zM682.667 174.933c0-18.851-15.282-34.133-34.133-34.133s-34.133 15.282-34.133 34.133c0 18.851 15.282 34.133 34.133 34.133v0c18.851 0 34.133-15.282 34.133-34.133v0zM382.293 838.537c14.56 10.151 31.238 18.954 48.971 25.598l1.564 0.514 12.151-30.447c2.581-6.336 8.687-10.723 15.819-10.735h0.002c0.015 0 0.033 0 0.052 0 2.262 0 4.421 0.445 6.393 1.253l-0.113-0.041c6.348 2.582 10.742 8.704 10.742 15.852 0 2.282-0.448 4.459-1.26 6.449l0.041-0.114-18.278 45.739-9.728 23.484c18.864 6.202 40.575 9.779 63.122 9.779 0.081 0 0.161 0 0.242 0h-0.012c0.176 0.001 0.385 0.001 0.594 0.001 22.293 0 43.755-3.559 63.848-10.14l-1.449 0.411-9.353-23.518-18.278-45.739c-0.771-1.876-1.219-4.053-1.219-6.335 0-7.148 4.394-13.269 10.628-15.811l0.114-0.041c1.868-0.776 4.039-1.228 6.314-1.229v0c0.002 0 0.004 0 0.006 0 7.145 0 13.264 4.391 15.808 10.621l0.041 0.114 12.151 30.447c19.148-7.102 35.706-15.918 50.848-26.607l-0.689 0.461-86.016-100.369h-86.716zM512 311.467c-134.025 0-221.867 9.745-221.867 140.134 0 139.162 99.533 252.399 221.867 252.399s221.867-113.237 221.867-252.399c0-130.389-87.842-140.134-221.867-140.134zM887.467 311.467c0 18.851 15.282 34.133 34.133 34.133s34.133-15.282 34.133-34.133c0-18.851-15.282-34.133-34.133-34.133v0c-18.851 0-34.133 15.282-34.133 34.133v0zM853.333 106.667v68.267c0 37.703 30.564 68.267 68.267 68.267s68.267-30.564 68.267-68.267v0-68.267zM512 516.267c-9.419 0.009-17.050 7.647-17.050 17.067 0 9.426 7.641 17.067 17.067 17.067 6.284 0 11.774-3.396 14.737-8.453l0.044-0.081c3.059-4.886 8.413-8.088 14.514-8.088 9.426 0 17.067 7.641 17.067 17.067 0 2.962-0.755 5.749-2.083 8.177l0.045-0.089c-6.202 10.302-15.654 18.107-26.915 22.077l-0.358 0.11v3.413c0 9.426-7.641 17.067-17.067 17.067s-17.067-7.641-17.067-17.067v0-3.14c-20.039-7.208-34.111-26.050-34.111-48.179 0-28.211 22.87-51.081 51.081-51.081 0.034 0 0.068 0 0.102 0h-0.005c9.419-0.009 17.050-7.647 17.050-17.067 0-9.426-7.641-17.067-17.067-17.067-6.284 0-11.774 3.396-14.737 8.453l-0.044 0.081c-3.059 4.886-8.413 8.088-14.514 8.088-9.426 0-17.067-7.641-17.067-17.067 0-2.962 0.755-5.749 2.083-8.177l-0.045 0.089c6.21-10.307 15.674-18.114 26.949-22.077l0.358-0.11v-3.413c0-9.426 7.641-17.067 17.067-17.067s17.067 7.641 17.067 17.067v0 3.14c20.039 7.208 34.111 26.050 34.111 48.179 0 28.211-22.87 51.081-51.081 51.081-0.046 0-0.092 0-0.138 0h0.007z" />
<glyph unicode="&#xe91d;" glyph-name="team" d="M155.619 411.075c3.607 2.958 5.89 7.415 5.89 12.405 0 3.845-1.356 7.374-3.616 10.134l0.023-0.028c-38.803 48.366-62.275 110.481-62.275 178.078 0 5.607 0.162 11.177 0.48 16.705l-0.035-0.764c-1.676 173.354 207.037 275.628 343.441 169.076l62.869-47.193c2.638-2.004 5.978-3.21 9.6-3.21s6.961 1.206 9.639 3.239l-0.040-0.029 62.869 47.193c35.185 27.198 79.922 43.596 128.489 43.596 34.92 0 67.859-8.477 96.874-23.485l-1.178 0.554c147.009-67.744 149.353-273.718 57.427-383.76-2.24-2.731-3.597-6.261-3.597-10.108 0-8.837 7.163-16 16-16 4.99 0 9.446 2.284 12.381 5.864l0.022 0.028c43.272 53.661 69.459 122.674 69.459 197.804 0 5.889-0.161 11.741-0.479 17.55l0.035-0.809c-0.056 199.995-236.012 315.685-394.633 194.352l-53.27-39.992-53.27 39.992c-40.725 30.836-92.233 49.393-148.075 49.393-136.222 0-246.651-110.43-246.651-246.651 0-2.356 0.033-4.703 0.099-7.043l-0.008 0.345c-0.089-2.776-0.139-6.041-0.139-9.317 0-74.375 26.086-142.657 69.607-196.196l-0.451 0.573c2.957-3.608 7.414-5.893 12.404-5.893 3.846 0 7.376 1.357 10.135 3.619l-0.028-0.022zM629.948 178.812l-58.975 19.656c24.926 18.383 40.916 47.637 40.916 80.625 0 55.169-44.724 99.893-99.893 99.893s-99.893-44.724-99.893-99.893c0-32.988 15.99-62.241 40.642-80.432l0.274-0.193-58.975-19.656c-34.638-11.757-59.12-43.986-59.12-81.932 0-0.029 0-0.057 0-0.086v0.005-36.461c0.024-19.946 16.187-36.108 36.131-36.133h281.88c19.946 0.024 36.108 16.187 36.133 36.131v36.463c0 0.024 0 0.053 0 0.082 0 37.947-24.482 70.175-58.512 81.753l-0.608 0.18zM444.097 278.916c0.005 37.497 30.403 67.892 67.9 67.892 37.5 0 67.9-30.4 67.9-67.9s-30.4-67.9-67.9-67.9v0c-37.485 0.045-67.859 30.422-67.9 67.904v0.004zM657.075 60.337c-0.004-2.285-1.855-4.136-4.139-4.14v0h-281.878c-2.285 0.004-4.136 1.855-4.14 4.139v0 36.461c0 0.013 0 0.028 0 0.043 0 23.912 15.425 44.221 36.867 51.52l0.383 0.113 76.304 25.432c9.409 3.219 20.25 5.077 31.525 5.077s22.115-1.858 32.232-5.285l-0.708 0.208 76.304-25.432c21.825-7.413 37.25-27.722 37.25-51.634 0-0.015 0-0.030 0-0.045v0.002zM335.698 411.184c-0.089-0.633-0.14-1.365-0.141-2.109v0-0.156c0.044-8.8 7.188-15.918 15.994-15.918 8.19 0 14.942 6.156 15.883 14.093l0.007 0.075c2.902 20.727 17.222 37.495 36.299 43.896l0.381 0.111 76.234 25.416c9.448 3.234 20.334 5.101 31.655 5.101 11.286 0 22.138-1.855 32.268-5.277l-0.71 0.208 76.281-25.448c19.344-6.461 33.612-23.055 36.613-43.322l0.036-0.294c0.797-8.166 7.626-14.495 15.933-14.495 8.839 0 16.005 7.166 16.005 16.005 0 0.746-0.051 1.48-0.15 2.198l0.009-0.083c-4.462 33.105-27.267 59.931-57.695 70.153l-0.605 0.176-58.986 19.678c24.905 18.385 40.879 47.626 40.879 80.597 0 55.169-44.723 99.892-99.892 99.892s-99.892-44.723-99.892-99.892c0-32.974 15.977-62.216 40.611-80.409l0.273-0.192-59.013-19.675c-31.022-10.408-53.816-37.231-58.228-69.888l-0.049-0.442zM444.097 581.601c0 0.002 0 0.005 0 0.008 0 37.5 30.4 67.9 67.9 67.9s67.9-30.4 67.9-67.9c0-37.5-30.4-67.9-67.9-67.9v0c-37.479 0.047-67.849 30.414-67.9 67.888v0.005zM900.82 210.696l-58.984 19.668c24.906 18.384 40.881 47.625 40.881 80.597 0 55.168-44.722 99.89-99.89 99.89s-99.89-44.722-99.89-99.89c0-32.974 15.977-62.217 40.613-80.409l0.273-0.193-41.714-13.899c-6.408-2.181-10.935-8.146-10.935-15.169 0-8.83 7.158-15.988 15.988-15.988 1.808 0 3.546 0.3 5.166 0.853l-0.113-0.033 58.972 19.636c9.446 3.241 20.33 5.113 31.651 5.113 11.285 0 22.136-1.859 32.263-5.289l-0.708 0.208 76.312-25.448c21.799-7.411 37.203-27.699 37.203-51.585 0-0.032 0-0.064 0-0.097v0.005-36.477c-0.002-2.294-1.861-4.154-4.155-4.155h-186.687c-8.835 0-15.997-7.162-15.997-15.997s7.162-15.997 15.997-15.997v0h186.687c19.955 0.023 36.126 16.193 36.149 36.146v36.478c0 0.036 0 0.078 0 0.121 0 37.929-24.464 70.145-58.473 81.729l-0.608 0.18zM782.83 242.876c-0.002 0-0.005 0-0.008 0-37.5 0-67.9 30.4-67.9 67.9s30.4 67.9 67.9 67.9c37.497 0 67.895-30.395 67.9-67.891v0c-0.042-37.482-30.411-67.857-67.887-67.908h-0.005zM133.296 180.358l76.242 25.401c9.447 3.245 20.332 5.118 31.655 5.118 11.287 0 22.139-1.862 32.266-5.295l-0.708 0.208 59.027-19.668c1.508-0.52 3.246-0.82 5.054-0.82 8.83 0 15.988 7.158 15.988 15.988 0 7.022-4.527 12.987-10.822 15.135l-0.113 0.033-41.705 13.905c24.903 18.384 40.876 47.623 40.876 80.593 0 55.167-44.721 99.888-99.888 99.888s-99.888-44.721-99.888-99.888c0-32.973 15.977-62.215 40.611-80.406l0.273-0.193-58.982-19.648c-34.623-11.772-59.089-43.996-59.089-81.934 0-0.039 0-0.078 0-0.117v0.006-36.477c0.022-19.955 16.192-36.126 36.145-36.149h186.69c8.835 0 15.997 7.162 15.997 15.997s-7.162 15.997-15.997 15.997v0h-186.688c-2.294 0.002-4.154 1.861-4.155 4.155v0 36.477c0 0.024 0 0.053 0 0.082 0 23.895 15.407 44.191 36.828 51.497l0.383 0.113zM173.272 310.784c0.007 37.493 30.402 67.884 67.896 67.884 37.498 0 67.896-30.398 67.896-67.896s-30.398-67.896-67.896-67.896c-0.001 0-0.003 0-0.004 0v0c-37.483 0.045-67.856 30.423-67.892 67.904v0.003z" />
<glyph unicode="&#xe91e;" glyph-name="internet" d="M897.2 784.96c-0.998 1.523-2.191 2.818-3.565 3.894l-0.035 0.026c-94.024 105.288-230.168 171.258-381.72 171.258s-287.697-65.97-381.283-170.76l-0.437-0.498c-1.338-1.066-2.477-2.307-3.403-3.701l-0.037-0.059v-0.4c-78.579-89.537-126.52-207.655-126.52-336.971 0-282.77 229.23-512 512-512s512 229.23 512 512c0 129.316-47.941 247.434-127.020 337.552l0.5-0.581zM881.2 141.68c-32.93 19.614-70.993 36.94-110.992 49.978l-4.048 1.142c23.747 71.287 37.922 153.408 38.955 238.692l0.005 0.508h186.48c-3.675-111.144-44.769-212.032-111.009-291.147l0.609 0.747zM32.4 432h186.48c1.030-85.818 15.205-167.968 40.598-245.021l-1.638 5.741c-44.048-14.181-82.111-31.506-117.695-52.575l2.655 1.455c-65.631 78.367-106.725 179.255-110.38 289.621l-0.020 0.779zM144 755.6c32.732-19.419 70.582-36.608 110.339-49.574l4.061-1.146c-24.103-71.775-38.484-154.47-39.515-240.377l-0.005-0.503h-186.48c3.753 111.713 45.303 213.050 112.187 292.314l-0.587-0.714zM528 666.88c74.414 1.086 145.899 11.646 213.925 30.523l-5.925-1.403c22.865-69.162 36.489-148.823 37.436-231.53l0.004-0.47h-245.44zM528 698.88v228.16c81.12-9.040 152-86.32 196.8-200.88-58.745-16.302-126.381-26.189-196.154-27.272l-0.646-0.008zM496 698.88c-70.418 1.090-138.055 10.978-202.493 28.608l5.693-1.328c44.8 114.56 115.68 191.84 196.8 200.88zM496 666.88v-202.88h-245.12c0.838 83.131 14.353 162.811 38.697 237.602l-1.577-5.602c62.1-17.473 133.585-28.033 207.366-29.113l0.634-0.007zM250.88 432h245.12v-201.12c-74.439-1.141-145.915-11.756-213.925-30.688l5.925 1.408c-22.588 68.678-36.089 147.781-37.115 229.888l-0.005 0.512zM496 198.88v-229.92c-81.44 9.12-152.96 87.040-197.44 202.48 58.936 16.407 126.792 26.353 196.799 27.432l0.641 0.008zM528 198.88c70.648-1.087 138.504-11.034 203.135-28.773l-5.695 1.333c-44.48-115.44-116-193.36-197.44-202.48zM528 230.88v201.12h245.12c-1.040-82.594-14.54-161.668-38.699-235.932l1.579 5.612c-62.094 17.5-133.575 28.088-207.353 29.192l-0.647 0.008zM805.12 464c-1.036 86.41-15.417 169.105-41.17 246.61l1.65-5.73c43.818 14.112 81.668 31.301 117.080 52.182l-2.68-1.462c66.297-78.551 107.848-179.888 111.579-290.811l0.021-0.789zM858.32 779.84c-29.508-16.928-63.763-32.113-99.63-43.712l-3.89-1.088c-29.52 75.84-70.48 136.96-118.48 176.56 87.831-24.173 162.938-70.056 221.833-131.584l0.167-0.176zM387.68 911.6c-48-39.36-88.88-100.64-118.4-176.56-39.757 12.686-74.011 27.872-106.229 46.221l2.709-1.421c59.042 61.692 134.12 107.573 218.546 130.962l3.374 0.798zM164.56 117.28c29.667 17.139 64.076 32.484 100.126 44.192l3.874 1.088c29.6-76.64 70.72-138.56 119.040-178.16-88.32 24.316-163.806 70.604-222.849 132.678l-0.191 0.202zM636.56-15.6c48 40 89.44 101.52 119.040 178.16 39.924-12.796 74.334-28.142 106.671-46.692l-2.671 1.412c-59.295-62.31-134.868-108.605-219.908-132.086l-3.372-0.794z" />
<glyph unicode="&#xe91f;" glyph-name="telephone" d="M208.66 279.314c101-120.733 222.581-215.791 361.349-283.053 52.834-25.038 123.491-54.743 202.211-59.836 4.88-0.212 9.548-0.424 14.429-0.424 52.834 0 95.271 18.248 129.857 55.804 0.212 0.212 0.637 0.637 0.849 1.061 12.307 14.853 26.311 28.22 40.952 42.437 9.973 9.548 20.157 19.521 29.918 29.706 45.195 47.105 45.195 106.941-0.424 152.56l-127.523 127.523c-21.643 22.492-47.529 34.374-74.689 34.374s-53.258-11.882-75.538-34.162l-75.962-75.962c-7.002 4.031-14.216 7.639-21.006 11.034-8.487 4.244-16.338 8.275-23.34 12.731-69.172 43.922-131.978 101.212-192.027 174.84-30.342 38.405-50.712 70.657-64.928 103.546 19.945 18.036 38.617 36.92 56.653 55.38 6.366 6.578 12.943 13.155 19.521 19.733 22.916 22.916 35.223 49.439 35.223 76.386s-12.094 53.47-35.223 76.386l-63.231 63.231c-7.426 7.426-14.429 14.641-21.643 22.067-14.004 14.429-28.645 29.281-43.073 42.649-21.855 21.431-47.529 32.676-74.689 32.676-26.947 0-52.834-11.246-75.538-32.889l-79.357-79.357c-28.857-28.857-45.195-63.867-48.59-104.395-4.031-50.712 5.305-104.607 29.494-169.747 37.132-100.787 93.149-194.361 176.325-294.299zM54.614 738.904c2.546 28.22 13.368 51.773 33.737 72.143l78.932 78.932c12.307 11.882 25.886 18.036 39.042 18.036 12.943 0 26.099-6.153 38.193-18.46 14.216-13.155 27.584-26.947 42.012-41.588 7.214-7.426 14.641-14.853 22.067-22.492l63.231-63.231c13.155-13.155 19.945-26.523 19.945-39.678s-6.79-26.523-19.945-39.678c-6.578-6.578-13.155-13.368-19.733-19.945-19.733-19.945-38.193-38.83-58.563-56.865-0.424-0.424-0.637-0.637-1.061-1.061-17.611-17.611-14.853-34.374-10.609-47.105 0.212-0.637 0.424-1.061 0.637-1.697 16.338-39.254 39.042-76.598 74.477-121.157 63.655-78.508 130.705-139.405 204.545-186.298 9.124-5.941 18.884-10.609 28.008-15.277 8.487-4.244 16.338-8.275 23.34-12.731 0.849-0.424 1.485-0.849 2.334-1.273 7.002-3.607 13.792-5.305 20.582-5.305 16.975 0 28.008 10.821 31.615 14.429l79.357 79.357c12.307 12.307 25.674 18.884 38.83 18.884 16.126 0 29.281-9.973 37.557-18.884l127.947-127.735c25.462-25.462 25.25-53.046-0.637-79.993-8.912-9.548-18.248-18.672-28.22-28.22-14.853-14.429-30.342-29.281-44.346-46.044-24.401-26.311-53.47-38.617-91.027-38.617-3.607 0-7.426 0.212-11.034 0.424-69.596 4.456-134.312 31.615-182.903 54.743-131.978 63.867-247.831 154.47-343.95 269.474-79.145 95.271-132.403 183.964-167.625 279.022-21.855 58.351-30.13 105.243-26.735 147.892z" />
<glyph unicode="&#xe920;" glyph-name="zakat" d="M1003.2 449.6c-14.4 14.4-32 22.4-51.2 20.8-19.2 0-38.4-8-51.2-22.4l-22.4-22.4c-6.4 20.8-17.6 48-27.2 62.4l-155.2 225.6c19.2 6.4 33.6 24 33.6 44.8 0 24-17.6 43.2-38.4 46.4l27.2 65.6c8 19.2 4.8 40-6.4 56-16 20.8-41.6 33.6-68.8 33.6-28.8 0-56-14.4-68.8-36.8-14.4 22.4-40 36.8-68.8 36.8-27.2 0-52.8-12.8-67.2-33.6-11.2-17.6-14.4-38.4-6.4-56l27.2-65.6c-22.4-3.2-38.4-22.4-38.4-46.4 0-20.8 14.4-38.4 33.6-44.8l-155.2-225.6c-17.6-25.6-27.2-52.8-32-81.6v-6.4h-16v16c0 25.6-20.8 46.4-46.4 46.4h-158.4c-25.6 1.6-46.4-19.2-46.4-44.8v-433.6c0-27.2 20.8-48 46.4-48h155.2c25.6 0 46.4 20.8 46.4 46.4v14.4h396.8c32 0 60.8 12.8 81.6 36.8l280 318.4c24 28.8 24 70.4-3.2 97.6zM464 908.8c8 11.2 24 19.2 41.6 19.2s33.6-8 41.6-20.8l12.8-22.4c6.4-9.6 22.4-9.6 27.2 0l14.4 22.4c8 12.8 24 20.8 41.6 20.8s32-8 40-19.2c3.2-6.4 8-16 3.2-27.2l-30.4-76.8h-164.8l-30.4 76.8c-4.8 11.2 0 20.8 3.2 27.2zM465.6 772.8h217.6c8 0 14.4-6.4 14.4-14.4s-6.4-14.4-14.4-14.4h-217.6c-8 0-14.4 6.4-14.4 14.4s6.4 14.4 14.4 14.4zM297.6 403.2c3.2 24 12.8 46.4 25.6 67.2l166.4 241.6h169.6l166.4-241.6c11.2-16 24-52.8 28.8-72l-150.4-158.4c-4.8 56-51.2 100.8-108.8 100.8h-14.4c-38.4 0-75.2 9.6-108.8 28.8-38.4 22.4-81.6 33.6-124.8 33.6zM217.6-17.6c0-8-6.4-14.4-14.4-14.4h-156.8c-8 0-14.4 6.4-14.4 14.4v435.2c0 8 6.4 14.4 14.4 14.4h155.2c8 0 14.4-6.4 14.4-14.4v-435.2zM982.4 372.8l-278.4-316.8c-14.4-16-35.2-25.6-57.6-25.6h-396.8v339.2h97.6c38.4 0 75.2-9.6 108.8-28.8 38.4-22.4 81.6-33.6 124.8-33.6h14.4c43.2 0 76.8-35.2 76.8-76.8 0-8-6.4-14.4-14.4-14.4h-187.2c-9.6 0-16-6.4-16-16s6.4-16 16-16h217.6c4.8 0 8 1.6 11.2 4.8l224 236.8c8 8 17.6 12.8 28.8 12.8s20.8-3.2 28.8-11.2c14.4-14.4 14.4-38.4 1.6-54.4zM604.8 472c0 12.8-9.6 22.4-22.4 22.4h-16c-30.4 0-54.4 24-54.4 54.4 0 27.2 20.8 49.6 46.4 54.4v16c0 9.6 6.4 16 16 16s16-6.4 16-16v-14.4c25.6 0 46.4-20.8 46.4-46.4 0-9.6-6.4-16-16-16s-16 6.4-16 16c0 8-6.4 14.4-14.4 14.4h-24c-12.8 0-22.4-9.6-22.4-22.4s9.6-22.4 22.4-22.4h16c30.4 0 54.4-24 54.4-54.4 0-27.2-20.8-49.6-46.4-54.4v-16c0-9.6-6.4-16-16-16s-16 6.4-16 16v12.8c-25.6 0-46.4 20.8-46.4 46.4 0 9.6 6.4 16 16 16s16-6.4 16-16c0-8 6.4-14.4 14.4-14.4h24c11.2 0 22.4 11.2 22.4 24z" />
<glyph unicode="&#xe921;" glyph-name="supplies" d="M51.215 277.335h34.134v-273.062c0-37.701 30.564-68.265 68.265-68.265h716.79c37.701 0 68.265 30.564 68.265 68.265v273.062h34.134c17.746 0 34.226 9.19 43.553 24.286s10.174 33.946 2.236 49.817l-68.265 136.532c-8.624 17.386-26.382 28.36-45.789 28.296h-17.066v34.134c9.426 0 17.066 7.642 17.066 17.066 0 9.426-7.64 17.066-17.066 17.066v34.134c9.426 0 17.066 7.642 17.066 17.066s-7.64 17.066-17.066 17.066v54.237c20.264 7.422 33.844 26.584 34.134 48.161 0 28.276-22.924 51.199-51.199 51.199h-80.707c12.020 24.874 15.29 53.077 9.284 80.041-7.122 26.764-25.37 49.191-50.123 61.609-45.157 23.672-107.827 14.848-146.174-58.213l-31.796-60.653-24.746 49.509v30.108c0 28.276-22.924 51.199-51.199 51.199h-102.399c-28.276 0-51.199-22.924-51.199-51.199v-30.106l-28.758-57.497c-3.548-7.082-5.39-14.896-5.376-22.818v-95.145c-7.014-0.962-13.89-2.756-20.48-5.342-4.718 23.766-19.716 44.223-40.959 55.875-8.486 3.688-18.36-0.11-22.186-8.534-3.852-8.506-0.208-18.534 8.21-22.58 8.364-4.996 14.844-12.616 18.432-21.674-7.408 1.994-15.044 3.010-22.716 3.020-59.561 0-108.031-61.251-108.031-136.532 0.046-17.386 2.798-34.66 8.158-51.199h-8.158c-19.414 0.070-37.179-10.904-45.805-28.296l-68.271-136.53c-7.94-15.874-7.092-34.728 2.24-49.823 9.334-15.098 25.818-24.284 43.567-24.28zM904.536 4.273c0-18.852-15.282-34.134-34.134-34.134h-716.79c-18.852 0-34.134 15.282-34.134 34.134v273.062h785.055v-273.062zM853.336 516.266h-123.936c2.938 11.14 4.44 22.612 4.472 34.134h119.464zM500.847 516.266c-3.928 10.95-5.926 22.5-5.906 34.134 0.056 56.529 45.869 102.343 102.399 102.399 20.966 0.090 41.435-6.364 58.555-18.466 27.494-19.096 43.875-50.459 43.843-83.933 0.022-11.634-1.976-23.182-5.906-34.134zM368.957 857.595h149.57l17.066-34.134h-183.703zM546.141 789.328v-112.45c-51.517-20.886-85.255-70.889-85.333-126.48 0.030-11.522 1.534-22.992 4.472-34.134h-46.761c5.36 16.54 8.112 33.814 8.158 51.199 0 65.433-36.641 120.216-85.333 133.442v88.423zM853.336 584.531h-123.868c-3.136 11.964-7.886 23.448-14.114 34.134h137.982zM887.47 755.197c-0.35-9.276-7.79-16.716-17.066-17.066h-51.199c-9.426 0-17.066-7.642-17.066-17.066 0-9.426 7.642-17.066 17.066-17.066h34.134v-51.199h-165.8c-1.554 1.348-3.26 2.542-4.864 3.822v47.377h34.134c9.426 0 17.066 7.642 17.066 17.066 0 9.426-7.64 17.066-17.066 17.066h-51.199c-9.426 0-17.066 7.642-17.066 17.066 0.35 9.276 7.79 16.716 17.066 17.066h204.797c9.424 0 17.064-7.642 17.064-17.066zM632.907 873.909c24.814 47.325 62.225 63.709 100.077 43.843 16.238-7.882 28.262-22.42 32.956-39.849 4.406-23.192 0.090-47.191-12.118-67.395l-2.15-4.114h-86.067c-28.124-0.368-50.831-23.076-51.199-51.199 0.026-21.692 13.692-41.021 34.134-48.281v-30.31c-16.234 6.732-33.626 10.238-51.199 10.326-5.708-0.038-11.408-0.43-17.066-1.178v87.825zM375.477 908.795c0 9.426 7.642 17.066 17.066 17.066h102.399c9.426 0 17.066-7.642 17.066-17.066v-17.066h-136.532v17.066zM153.614 567.465c0 56.473 33.144 102.399 73.897 102.399 12.796-0.094 25.186-4.496 35.174-12.492 6.13-4.706 14.658-4.706 20.788 0 9.988 7.998 22.38 12.398 35.174 12.492 40.755 0 73.897-45.925 73.897-102.399 0.034-17.588-3.476-35-10.326-51.199h-218.279c-6.848 16.198-10.36 33.612-10.324 51.199zM35.992 336.165l68.265 136.532c2.884 5.77 8.774 9.422 15.224 9.438h785.055c6.5 0.036 12.454-3.624 15.36-9.438l68.265-136.532c2.652-5.306 2.358-11.606-0.774-16.642s-8.654-8.086-14.586-8.052h-921.587c-5.912 0.004-11.402 3.066-14.51 8.096s-3.39 11.31-0.748 16.6h0.036zM681.837 856.655l27.034-14.182c5.402-2.836 11.906-2.574 17.064 0.688 5.156 3.26 8.182 9.024 7.936 15.122-0.246 6.096-3.726 11.598-9.128 14.434l-27.034 14.182c-5.402 2.836-11.906 2.574-17.064-0.688-5.156-3.26-8.182-9.024-7.936-15.122 0.246-6.096 3.726-11.598 9.128-14.434z" />
<glyph unicode="&#xe922;" glyph-name="charity" d="M935.154 830.22l-8.336 8.338c-57.176 57.174-133.424 88.308-214.686 87.456-74.306-0.714-144.658-27.888-200.144-76.928-55.47 48.85-126.366 75.538-201.702 75.538-81.922 0-158.592-31.554-215.886-88.85l-5.552-5.55c-57.296-57.298-88.848-133.476-88.848-214.506 0-81.032 31.554-157.208 88.846-214.492l61.738-61.738-11.4-12.574c-28.574-31.518-27.394-79.774 2.688-109.858 15.602-15.602 37.076-24.012 59.112-23.268-1.966-22.686 6-45.962 23.744-63.162 14.794-14.34 34.134-22.166 54.656-22.166 4.594 0 9.186 0.392 13.71 1.178 0.914-18.538 8.422-36.786 22.484-50.96 14.756-14.872 34.292-23.004 55.17-23.004 7.056 0 14.11 0.934 20.914 2.808 2.142-15.874 9.172-31.218 21.106-43.782 14.852-15.638 34.908-24.418 56.474-24.718 21.302-0.326 42.050 8.102 57.14 23.128l240.286 239.628c7.824 7.826 7.824 20.514-0.002 28.338-7.826 7.828-20.514 7.824-28.34-0.002l-240.218-239.56c-11.854-11.804-30.544-14.822-45.488-7.264-14.016 7.088-22.688 22.312-21.342 37.986 0.74 8.624 4.416 16.82 10.202 23.238l146.626 160.374c7.468 8.168 6.9 20.844-1.268 28.312-8.168 7.472-20.844 6.9-28.312-1.266l-159.88-174.87c-7.034-7.692-16.646-12.048-27.068-12.26-10.488-0.206-20.204 3.748-27.546 11.144-14.186 14.3-14.656 37.148-1.068 52.016l166.478 179.776c7.542 8.1 7.092 20.782-1.008 28.324s-20.782 7.088-28.322-1.010l-172.464-185.2c-7.114-7.64-16.78-11.994-27.214-12.262-10.456-0.242-20.312 3.588-27.808 10.856-15.090 14.626-15.784 38.218-1.586 53.71l175.402 191.35c7.478 8.158 6.928 20.834-1.23 28.314-8.16 7.48-20.836 6.926-28.314-1.232l-169.5-184.914c-15.024-16.38-41.45-16.962-57.18-1.236-14.95 14.954-15.538 38.936-1.336 54.6l312.064 344.214 69.634-58.080c34.744-28.976 86.676-26.274 118.224 6.154 16.736 17.202 25.694 40.818 24.576 64.794-1.118 23.974-12.234 46.658-30.498 62.23l-120.694 102.898c47.676 40.642 108.672 63.136 171.628 63.74 0.868 0.008-0.866 0 0 0 69.44 0 135.772-26.83 184.664-75.722l8.336-8.338c49.724-49.724 77.108-115.838 77.108-186.164s-27.384-136.434-77.108-186.15l-42.486-42.488c-7.826-7.826-7.824-20.514 0.002-28.34 7.826-7.824 20.514-7.824 28.34 0l42.484 42.488c57.29 57.274 88.844 133.448 88.844 214.482 0 81.030-31.552 157.208-88.846 214.502zM653.342 655.208c0.612-13.136-4.1-25.558-13.268-34.982-17.034-17.508-45.068-18.964-63.826-3.32l-84.4 70.396c-8.252 6.88-20.464 6.032-27.682-1.93l-286.63-316.156-60.352 60.35c-49.722 49.716-77.106 115.826-77.106 186.15s27.384 136.44 77.106 186.164l5.552 5.55c49.724 49.726 116.33 77.112 187.546 77.112s137.822-27.386 187.546-77.112c0.226-0.226 139.046-118.626 139.046-118.626 10.008-8.53 15.854-20.462 16.468-33.596zM800.674 323.742c-7.556-8.058-7.148-20.714 0.908-28.27s20.714-7.148 28.27 0.91 7.148 20.714-0.908 28.27c-8.058 7.554-20.716 7.148-28.27-0.91z" />
<glyph unicode="&#xe923;" glyph-name="first-aid-kit" d="M445.339 731.716h-113.442c-8.286 0-15-6.716-15-15v-73.445h-73.447c-8.286 0-15-6.716-15-15v-113.442c0-8.284 6.714-15 15-15h73.447v-73.445c0-8.284 6.714-15 15-15h113.442c8.286 0 15 6.716 15 15v73.445h73.447c8.286 0 15 6.716 15 15v113.442c0 8.284-6.714 15-15 15h-73.447v73.445c0 8.286-6.716 15-15 15zM518.786 613.273v-83.442h-73.447c-8.286 0-15-6.716-15-15v-73.445h-83.442v73.445c0 8.284-6.714 15-15 15h-73.447v83.442h73.447c8.286 0 15 6.716 15 15v73.445h83.442v-73.445c0-8.284 6.714-15 15-15zM1012.728 218.456l-89.212 89.21c-9.638 9.638-25.695 13.576-38.707 9.522v99.822c0 16.908-7.334 32.951-20.12 44.017l-47.443 41.055c-6.898 5.97-10.856 14.626-10.856 23.748v0.582h12.294c8.286 0 15 6.716 15 15v50.499c0 18.554-15.094 33.647-33.647 33.647h-22.822v152.909c0 51.161-41.623 92.782-92.782 92.782h-146.227c1.834 47.217-35.123 88.75-83.26 88.75h-132.651c-48.477 0-84.622-41.513-83.264-88.75h-146.227c-51.161 0-92.784-41.623-92.784-92.782v-50.463c0-19.394 29.999-19.394 29.999 0v50.463c0 34.619 28.165 62.783 62.785 62.783h591.632c34.619 0 62.783-28.165 62.783-62.783v-152.909h-53.493c-18.554 0-33.647-15.094-33.647-33.647v-50.499c0-8.284 6.714-15 15-15h12.296v-0.582c0-9.124-3.958-17.778-10.856-23.748l-47.443-41.057c-12.786-11.066-20.12-27.107-20.12-44.015v-17.594c-16.662 6.884-38.495 10.17-59.541 10.17-42.135 0-87.442-13.166-87.998-42.041-0.006-0.164-0.026-0.322-0.026-0.488l-0.166-61.041c-24.94 32.363-64.051 53.273-107.976 53.273-45.781 0-86.33-22.714-111.054-57.439h-149.391c-34.619 0-62.785 28.165-62.785 62.783v283.372c0 19.394-29.999 19.394-29.999 0v-283.368c0-51.161 41.623-92.782 92.784-92.782h133.253c-5.846-15.174-9.086-31.631-9.086-48.841 0-75.145 61.135-136.279 136.281-136.279 10.914 0 21.674 1.312 32.147 3.848v-138.973c0-16.482 18.872-15.602 29.845-15.602 109.732 0 223.264 69.961 222.198 190.176 12.784-7.626 27.475-8.868 41.969-8.188-19.068-15.284-27.069-43.083-7.864-62.291l89.212-89.212c14.848-14.848 39.583-14.848 54.431 0l24.654 24.654c13.714 13.714-7.498 34.923-21.214 21.212l-24.654-24.654c-4-3.314-8.002-3.314-12.002 0l-89.212 89.212c-3.31 3.31-3.308 8.696 0 12.004l197.536 197.534c4.002 3.316 8.002 3.316 12.004 0l89.212-89.21c3.31-3.31 3.31-8.696 0-12.004l-117.692-117.692c-13.714-13.714 7.498-34.923 21.214-21.212l117.692 117.692c15.004 15.004 15.004 39.421 0 54.427zM269.029 876.736c0 29.371 23.894 53.265 53.265 53.265h132.651c32.013 0 54.431-28.093 53.265-58.751h-239.181zM690.077 591.913c0 2.010 1.636 3.648 3.648 3.648h106.314c2.012 0 3.648-1.636 3.648-3.648v-35.499h-113.612v35.499zM489.462 220.41c0.976 1.982 1.542 4.204 1.548 6.564l0.292 107.080c33.127-13.060 76.149-13.082 109.752-2.306-5.654-16.488-14.952-33.537-27.511-50.095-19.46-25.657-44.857-47.657-67.933-58.845-5.494-2.664-10.928-4.93-16.27-6.89 0.078 1.494 0.094 2.994 0.122 4.492zM549.417 379.591c31.649 0 51.175-7.884 56.867-12.572-23.886-19.672-89.866-19.652-113.734 0 5.692 4.688 25.218 12.572 56.867 12.572zM353.251 116.734c-58.605 0-106.282 47.677-106.282 106.28s47.677 106.28 106.282 106.28 106.282-47.677 106.282-106.28c0-5.17-0.404-10.324-1.142-15.412-17.166-3.004-31.771-3.032-41.585-2.418 1.594 5.676 2.466 11.65 2.466 17.828 0 36.405-29.617 66.021-66.021 66.021s-66.021-29.617-66.021-66.021 29.617-66.021 66.021-66.021c11.666 0 22.628 3.054 32.147 8.386v-43.687c-10.354-3.282-21.148-4.956-32.147-4.956zM353.251 186.993c-19.864 0-36.021 16.16-36.021 36.021s16.158 36.021 36.021 36.021 36.021-16.16 36.021-36.021-16.158-36.021-36.021-36.021zM607.442 119.888c-3.794-100.788-100.998-153.601-192.042-153.843v209.124c21.92-1.362 61.091 0.18 103.302 20.646 28.859 13.994 64.163 44.381 88.74 81.898zM667.167 147.994c-15.554 0-28.209 12.656-28.209 28.211v240.807c0 8.194 3.554 15.97 9.752 21.332l47.443 41.055c13.486 11.672 21.222 28.595 21.222 46.433v0.536h59.021v-0.536c0-17.836 7.736-34.759 21.222-46.433l47.443-41.055c6.198-5.364 9.752-13.14 9.752-21.334v-123.62l-29.691-29.691v98.648c0 17.106-13.916 31.021-31.021 31.021h-94.43c-17.106 0-31.021-13.916-31.021-31.021v-122.796c0-17.106 13.916-31.021 31.021-31.021h70.281l-60.539-60.539h-42.243zM794.098 238.532h-94.43c-0.562 0-1.022 0.458-1.022 1.022v122.796c0 0.564 0.458 1.022 1.022 1.022h94.43c0.562 0 1.022-0.458 1.022-1.022v-122.796c-0.002-0.564-0.46-1.022-1.022-1.022zM749.103 73.403c19.304 0 19.336 29.999 0 29.999-19.304 0-19.336-29.999 0-29.999zM796.34 150.64c-19.304 0-19.336-29.999 0-29.999 19.304 0 19.336 29.999 0 29.999zM843.578 197.877c-19.304 0-19.336-29.999 0-29.999 19.304 0 19.336 29.999 0 29.999zM890.815 245.114c-19.304 0-19.336-29.999 0-29.999 19.304 0 19.336 29.999 0 29.999zM789.913 32.594c19.304 0 19.336 29.999 0 29.999-19.304 0-19.336-29.999 0-29.999zM837.15 109.831c-19.304 0-19.336-29.999 0-29.999 19.304 0 19.336 29.999 0 29.999zM884.387 127.068c19.304 0 19.336 29.999 0 29.999-19.302 0-19.334-29.999 0-29.999zM931.624 204.305c-19.304 0-19.336-29.999 0-29.999 19.304 0 19.336 29.999 0 29.999z" />
<glyph unicode="&#xe924;" glyph-name="search-interface-symbol" d="M1014.294-8.29l-264.38 260.155c69.233 75.219 111.771 174.698 111.771 284.164-0.033 234.168-192.91 423.971-430.854 423.971s-430.821-189.803-430.821-423.971 192.877-423.971 430.821-423.971c102.808 0 197.102 35.56 271.168 94.678l265.406-261.181c12.932-12.74 33.927-12.74 46.859 0 12.962 12.738 12.962 33.415 0.030 46.155zM430.831 177.289c-201.326 0-364.533 160.613-364.533 358.74s163.207 358.74 364.533 358.74c201.328 0 364.533-160.613 364.533-358.74s-163.205-358.74-364.533-358.74z" />
<glyph unicode="&#xe925;" glyph-name="shopping-cart" d="M329.922 297.992h0.047c0.039 0 0.078 0.008 0.117 0.008h543.914c13.391 0 25.164 8.883 28.844 21.758l120 420c2.586 9.055 0.773 18.789-4.891 26.305-5.672 7.516-14.539 11.937-23.953 11.937h-733.265l-21.445 96.508c-3.055 13.727-15.227 23.492-29.289 23.492h-180c-16.57 0-30-13.43-30-30s13.43-30 30-30h155.937c3.797-17.102 102.625-461.836 108.312-487.422-31.883-13.859-54.25-45.648-54.25-82.578 0-49.625 40.375-90 90-90h544c16.57 0 30 13.43 30 30s-13.43 30-30 30h-544c-16.539 0-30 13.461-30 30 0 16.516 13.414 29.953 29.922 29.992zM954.226 718l-102.859-360h-497.304l-80 360zM300 88c0-49.625 40.375-90 90-90s90 40.375 90 90-40.375 90-90 90-90-40.375-90-90zM390 118c16.539 0 30-13.461 30-30s-13.461-30-30-30-30 13.461-30 30 13.461 30 30 30zM724 88c0-49.625 40.375-90 90-90s90 40.375 90 90-40.375 90-90 90-90-40.375-90-90zM814 118c16.539 0 30-13.461 30-30s-13.461-30-30-30-30 13.461-30 30 13.461 30 30 30z" />
<glyph unicode="&#xe926;" glyph-name="calendar" d="M904 880h-48v80h-80v-80h-528v80h-80v-80h-48c-66.168 0-120-53.832-120-120v-704c0-66.168 53.832-120 120-120h784c66.168 0 120 53.832 120 120v704c0 66.168-53.832 120-120 120zM944 56c0-22.056-17.944-40-40-40h-784c-22.056 0-40 17.944-40 40v528h864v-528zM944 664h-864v96c0 22.056 17.944 40 40 40h48v-80h80v80h528v-80h80v80h48c22.056 0 40-17.944 40-40v-96zM152 500h80v-80h-80v80zM312 500h80v-80h-80v80zM472 500h80v-80h-80v80zM632 500h80v-80h-80v80zM792 500h80v-80h-80v80zM152 340h80v-80h-80v80zM312 340h80v-80h-80v80zM472 340h80v-80h-80v80zM632 340h80v-80h-80v80zM152 180h80v-80h-80v80zM312 180h80v-80h-80v80zM472 180h80v-80h-80v80zM632 180h80v-80h-80v80zM792 340h80v-80h-80v80z" />
<glyph unicode="&#xe927;" glyph-name="salad" d="M0 465.067c0-177.152 86.869-346.795 221.867-435.712v-42.155c0-28.16 23.040-51.2 51.2-51.2h477.867c28.16 0 51.2 23.040 51.2 51.2v42.155c134.997 88.917 221.867 258.56 221.867 435.712 0 28.16-23.040 51.2-51.2 51.2h-34.133c8.363 10.069 15.531 21.163 20.651 33.451 15.019 36.523 12.117 78.165-6.827 112.299 12.459 11.093 22.357 24.917 29.013 40.96 11.264 27.648 11.093 57.856-0.512 85.333-11.605 27.307-32.939 48.469-59.904 59.392-1.195 0.512-2.219 1.024-3.413 1.365 8.704 42.667-13.824 86.869-55.467 104.107-41.472 16.896-88.576 1.195-112.299-35.328-1.024 0.512-2.048 0.853-3.072 1.365-56.661 23.211-121.515-4.096-144.725-60.587-6.656-16.043-9.387-32.768-8.363-49.664-21.504-6.315-40.789-18.091-56.32-33.963-27.307 38.912-64 65.707-110.933 65.707-52.736 0-92.672-33.621-120.661-80.555-11.947 11.093-26.624 18.603-42.496 21.675l2.219 83.968c0.341 13.653-4.608 26.624-13.995 36.523s-22.187 15.701-36.011 16.043c-0.512 0-0.853 0-1.365 0-18.603 0-34.816-10.24-43.861-25.259-9.557 24.917-36.693 38.741-62.635 30.72-13.141-3.925-23.893-12.8-30.208-24.917-5.803-11.093-7.339-23.552-4.437-35.669-4.267 2.048-8.704 3.755-13.312 4.437-13.483 2.389-27.136-0.853-38.229-8.704-11.093-8.021-18.603-19.968-20.821-33.451s0.853-26.965 8.704-38.059l48.811-68.779c-7.339-7.509-13.824-15.872-18.091-25.771-10.411-23.211-10.069-49.835 0.683-72.875l48.64-103.765h-38.229c-28.16 0-51.2-23.040-51.2-51.2zM768-12.8c0-9.387-7.68-17.067-17.067-17.067h-477.867c-9.387 0-17.067 7.68-17.067 17.067v34.133h512zM989.867 465.067c0-164.864-84.139-328.704-209.749-409.6h-536.235c-125.611 80.896-209.749 244.736-209.749 409.6 0 9.387 7.68 17.067 17.067 17.067h921.6c9.387 0 17.067-7.68 17.067-17.067zM375.467 550.4c0 28.16 23.040 51.2 51.2 51.2s51.2-23.040 51.2-51.2c0-12.629-4.949-24.747-13.483-34.133h-75.435c-8.533 9.387-13.483 21.504-13.483 34.133zM615.595 778.752c4.608 0.683 8.875 3.413 11.435 7.168 2.731 3.925 3.584 8.704 2.56 13.312-3.413 15.36-2.048 31.232 4.096 46.080 16.043 39.253 61.099 58.027 99.84 42.155 4.437-2.048 9.728-4.267 13.483-7.168 4.267-3.072 9.728-4.096 14.848-2.56s9.216 5.12 11.093 10.069l0.683 1.536c12.288 29.525 46.251 44.032 75.947 31.915s43.861-46.251 31.744-75.947l-0.683-1.707c-1.877-4.779-1.536-10.24 0.853-14.677 2.56-4.437 6.997-7.68 12.117-8.533 4.608-0.683 9.387-2.219 14.336-4.437 18.944-7.68 33.792-22.357 41.813-41.131 8.021-18.944 8.192-39.936 0.341-59.051-6.144-14.848-16.384-27.136-29.355-35.499-3.925-2.56-6.827-6.656-7.68-11.264s0.171-9.387 3.072-13.312c19.797-26.795 24.405-62.464 11.776-93.184-8.363-19.968-22.528-35.84-40.96-46.421h-184.661l16.555 40.448 77.483 12.629c9.216 1.536 15.701 10.24 14.165 19.627s-10.24 15.531-19.627 14.165l-56.832-9.216 31.403 76.8 77.653 12.629c9.216 1.536 15.701 10.24 14.165 19.627s-10.24 15.531-19.627 14.165l-57.003-9.387 34.304 84.139c3.584 8.704-0.683 18.603-9.387 22.187s-18.603-0.683-22.187-9.387l-34.304-83.968-34.133 46.592c-5.632 7.68-16.213 9.216-23.893 3.755-7.68-5.632-9.216-16.213-3.755-23.893l46.421-63.488-31.403-76.8-34.133 46.592c-5.632 7.68-16.213 9.216-23.893 3.755-7.68-5.632-9.216-16.213-3.755-23.893l46.421-63.488-21.845-53.419h-76.117c5.12 16.555 8.192 33.792 8.192 51.2 0 54.784-13.483 122.709-41.301 176.981 14.848 18.432 36.011 30.72 59.563 34.304zM426.667 806.4c87.893 0 136.533-141.312 136.533-238.933 0-17.579-3.584-34.987-10.24-51.2h-48.128c4.608 10.581 7.168 22.187 7.168 34.133 0 47.104-38.229 85.333-85.333 85.333s-85.333-38.229-85.333-85.333c0-11.947 2.56-23.552 7.168-34.133h-48.128c-6.656 16.213-10.24 33.621-10.24 51.2 0 9.728 0.683 20.139 1.536 30.549 8.704 94.037 55.808 208.384 134.997 208.384zM202.581 879.275c3.243 3.072 7.339 5.291 12.117 4.608 4.608 0 8.875-2.048 12.117-5.291 3.072-3.243 4.779-7.509 4.608-12.117l-2.219-84.992c-2.901-0.512-5.632-0.853-8.533-1.877l-14.165-4.267-10.752 35.499 1.365 56.32c0 4.608 2.048 8.875 5.291 11.947zM107.861 882.688c2.048 4.096 5.632 6.997 10.069 8.363 9.045 2.731 18.603-2.389 21.333-11.435l34.816-114.176-32.597-10.069-34.816 114.176c-1.365 4.267-0.853 9.045 1.195 12.971zM34.475 819.883c0.683 4.437 3.072 8.533 6.827 11.264 7.68 5.461 18.432 3.413 23.893-4.096l32.768-46.080 10.752-35.328-13.995-4.267c-2.901-0.853-5.291-2.219-8.021-3.413l-49.493 69.632c-2.56 3.755-3.413 8.192-2.731 12.629zM89.429 596.821l75.435 23.040c9.045 2.731 14.165 12.288 11.264 21.333s-12.288 14.165-21.333 11.264l-80.213-24.405-3.072 6.656c-6.656 14.165-6.827 30.379-0.512 44.544s18.432 24.917 33.28 29.355l126.123 38.571c22.016 6.827 45.397-1.536 58.539-19.627-15.872-36.181-25.941-76.459-30.379-114.517l-34.987-10.581c-9.045-2.731-14.165-12.288-11.264-21.333 2.219-7.339 9.045-12.117 16.384-12.117 1.707 0 3.243 0.171 4.949 0.683l22.357 6.827c0-2.901-0.341-5.973-0.341-8.875 0-17.408 2.901-34.645 8.192-51.2h-136.533l-37.717 80.555z" />
<glyph unicode="&#xe928;" glyph-name="location" d="M487.038-50.64c5.564-8.346 14.932-13.36 24.962-13.36s19.398 5.012 24.962 13.36c70.998 106.494 175.572 238.016 248.444 371.778 58.268 106.952 86.594 198.17 86.594 278.862 0 198.504-161.496 360-360 360s-360-161.496-360-360c0-80.692 28.326-171.91 86.594-278.862 72.818-133.66 177.592-265.504 248.444-371.778zM512 900c165.42 0 300-134.58 300-300 0-70.408-25.934-152.236-79.282-250.158-62.814-115.298-152.45-232.256-220.718-330.58-68.258 98.31-157.9 215.276-220.718 330.58-53.348 97.922-79.282 179.75-79.282 250.158 0 165.42 134.58 300 300 300zM512 420c99.252 0 180 80.748 180 180s-80.748 180-180 180-180-80.748-180-180 80.748-180 180-180zM512 720c66.168 0 120-53.832 120-120s-53.832-120-120-120-120 53.832-120 120 53.832 120 120 120z" />
<glyph unicode="&#xe929;" glyph-name="mail" d="M1009.56 553.341c0.105 1.030 0.12 2.067 0.057 3.104 0.362 5.972-2.073 12.021-7.099 16.044l-118.973 95.218v46.998c0 44.176-35.939 80.115-80.115 80.115h-78.708l-197.45 158.024c-0.007 0.009-0.012 0.018-0.018 0.027-3.845 4.804-9.542 7.235-15.254 7.126-5.711 0.109-11.408-2.321-15.252-7.126-0.007-0.009-0.012-0.018-0.019-0.027l-197.448-158.024h-78.709c-44.176 0-80.115-35.939-80.115-80.115v-46.998l-118.973-95.217c-5.027-4.022-7.461-10.072-7.099-16.044-0.063-1.036-0.049-2.074 0.056-3.104-0.068-0.655-0.105-1.319-0.105-1.992v-525.132c0-49.746 42.712-90.216 95.212-90.216h804.906c52.499 0 95.212 40.471 95.212 90.216v525.132c0.001 0.673-0.036 1.337-0.105 1.992zM883.545 618.898l78.033-62.452-78.033-62.453zM512 916.257l151.735-121.437h-303.469zM178.564 714.705c0 23.162 18.845 42.007 42.007 42.007h582.859c23.162 0 42.007-18.845 42.007-42.007v-56.391c0-0.018-0.001-0.036 0-0.054v-194.767l-333.436-266.861-333.436 266.861zM140.456 618.898v-124.905l-78.033 62.453zM52.443 26.216v489.406l310.119-248.199-304.605-263.525c-3.531 6.769-5.514 14.335-5.514 22.318zM914.454-25.892h-804.906c-8.091 0-15.788 1.552-22.768 4.334l306.040 264.767 103.909-83.163c0.007-0.008 0.012-0.017 0.019-0.026 3.763-4.701 9.299-7.147 14.888-7.147 0.121 0 0.243 0.012 0.365 0.014 0.122-0.002 0.244-0.014 0.366-0.014 5.588 0 11.125 2.446 14.888 7.147 0.007 0.008 0.012 0.017 0.018 0.026l103.909 83.163 306.040-264.767c-6.98-2.781-14.678-4.334-22.768-4.334zM971.557 26.216c0-7.983-1.983-15.549-5.514-22.319l-304.605 263.525 310.119 248.199zM315.905 576.423h394.203c10.523 0 19.054 8.53 19.054 19.054s-8.53 19.054-19.054 19.054h-394.203c-10.524 0-19.054-8.53-19.054-19.054s8.53-19.054 19.054-19.054zM729.161 480.838c0 10.524-8.53 19.054-19.054 19.054h-394.203c-10.524 0-19.054-8.53-19.054-19.054s8.53-19.054 19.054-19.054h394.203c10.524 0 19.054 8.53 19.054 19.054z" />
<glyph unicode="&#xe92a;" glyph-name="play-button-arrowhead" d="M217.828 937.422c-92.319 52.956-167.166 9.574-167.166-96.819v-785.131c0-106.499 74.847-149.825 167.166-96.919l686.243 393.556c92.351 52.974 92.351 138.801 0 191.763l-686.243 393.55z" />
<glyph unicode="&#xe92b;" glyph-name="heart" d="M942.766 814.844c-53.008 57.492-125.742 89.156-204.82 89.156-59.109 0-113.242-18.688-160.898-55.539-24.047-18.602-45.836-41.359-65.047-67.922-19.203 26.555-41 49.32-65.055 67.922-47.648 36.852-101.781 55.539-160.891 55.539-79.078 0-151.82-31.664-204.828-89.156-52.375-56.82-81.227-134.445-81.227-218.586 0-86.602 32.273-165.875 101.563-249.484 61.984-74.789 151.070-150.711 254.234-238.625 35.227-30.023 75.156-64.055 116.617-100.305 10.953-9.594 25.008-14.875 39.586-14.875 14.57 0 28.633 5.281 39.57 14.859 41.461 36.258 81.414 70.305 116.656 100.344 103.148 87.898 192.234 163.813 254.219 238.609 69.289 83.602 101.555 162.875 101.555 249.484 0 84.133-28.852 161.758-81.234 218.578z" />
<glyph unicode="&#xe92c;" glyph-name="linkedin-big-logo" d="M136.484 959.28c-75.201 0-136.429-61.216-136.484-136.476 0-75.26 61.228-136.488 136.484-136.488 75.229 0 136.425 61.228 136.425 136.488 0 75.253-61.2 136.476-136.425 136.476zM238.917 631.479h-204.882c-9.746 0-17.651-7.901-17.651-17.655v-659.453c0-9.75 7.905-17.651 17.651-17.651h204.878c9.75 0 17.655 7.905 17.655 17.651v659.453c0.004 9.758-7.901 17.655-17.651 17.655zM762.689 639.242c-74.977 0-140.866-22.831-181.072-60.060v34.641c0 9.754-7.905 17.655-17.655 17.655h-196.532c-9.75 0-17.655-7.901-17.655-17.655v-659.453c0-9.75 7.905-17.651 17.655-17.651h204.685c9.75 0 17.655 7.905 17.655 17.651v326.264c0 93.611 17.218 151.634 103.149 151.634 84.66-0.102 90.996-62.321 90.996-157.227v-320.671c0-9.75 7.905-17.651 17.659-17.651h204.78c9.746 0 17.651 7.905 17.651 17.651v361.739c-0.004 150.446-29.705 323.133-261.315 323.133z" />
<glyph unicode="&#xe92d;" glyph-name="mortarboard" d="M985.005 676.381l-415.522 178.085c-36.531 15.655-78.454 15.643-115.031-0.031l-415.432-178.044c-24.067-10.312-39.020-32.984-39.020-59.166 0-26.168 14.942-48.827 38.995-59.136l49.107-21.047c-0.051-0.507-0.078-1.022-0.078-1.541v-232.386c-18.982-6.412-32.692-24.376-32.692-45.495 0-12.243 4.614-23.426 12.184-31.918-8.373-8.208-13.933-19.335-15.081-31.944l-11.765-129.423c-0.803-8.841 2.17-17.668 8.155-24.223s14.509-10.314 23.385-10.314h62.276c8.876 0 17.4 3.76 23.385 10.314 5.987 6.555 8.958 15.384 8.155 24.223l-11.765 129.423c-1.146 12.607-6.708 23.734-15.081 31.944 7.57 8.49 12.184 19.672 12.184 31.918 0 21.117-13.71 39.081-32.692 45.495v220.826l83.851-35.937c-0.051-0.507-0.078-1.020-0.078-1.539v-117.002c0-48.831 33.436-94.006 94.151-127.204 57.787-31.597 134.286-48.999 215.401-48.999s157.614 17.402 215.401 48.999c60.713 33.199 94.151 78.373 94.151 127.204v117.002c0 0.519-0.027 1.032-0.078 1.537l163.509 70.075c24.067 10.314 39.020 32.988 39.020 59.168 0.002 26.168-14.94 48.827-38.993 59.136zM135.24 60.781c-0.302-0.333-0.631-0.333-0.754-0.333h-62.276c-0.125 0-0.452 0-0.754 0.333-0.304 0.333-0.274 0.658-0.264 0.781l11.765 129.423c0.966 10.615 9.732 18.62 20.392 18.62 10.658 0 19.423-8.005 20.39-18.62l11.765-129.421c0.012-0.125 0.041-0.45-0.264-0.783zM103.349 240.253c-9.577 0-17.368 7.791-17.368 17.368s7.791 17.368 17.368 17.368 17.368-7.791 17.368-17.368-7.791-17.368-17.368-17.368zM790.901 434.846c0-39.627-32.614-78.315-89.48-106.146-7.603-3.721-10.747-12.899-7.027-20.5 2.658-5.435 8.108-8.592 13.776-8.592 2.262 0 4.556 0.503 6.726 1.565 31.542 15.437 56.812 34.243 74.83 55.153-5.746-32.316-32.58-62.873-77.028-87.177-53.357-29.175-124.632-45.241-200.698-45.241s-147.34 16.066-200.698 45.241c-44.287 24.217-71.095 54.64-76.971 86.828 15.49-17.856 36.39-34.186 62.266-48.335 57.787-31.597 134.286-48.999 215.401-48.999 22.692 0 45.325 1.381 67.27 4.103 8.4 1.042 14.364 8.694 13.322 17.094s-8.684 14.366-17.094 13.322c-20.698-2.568-42.062-3.87-63.498-3.87-76.066 0-147.34 16.066-200.698 45.241-50.431 27.576-78.205 63.2-78.205 100.313v40.056l221.422-94.898c18.254-7.824 37.853-11.734 57.462-11.734 19.631 0 39.271 3.921 57.568 11.763l221.353 94.866v-40.052zM972.907 586.248l-415.434-178.042c-28.9-12.386-62.025-12.396-90.881-0.031l-317.5 136.074 290.915 50.595c13.085-15.486 39.751-25.626 71.992-25.626 46.012 0 80.708 20.643 80.708 48.016s-34.696 48.016-80.708 48.016c-41.788 0-74.239-17.028-79.844-40.661l-331.43-57.64c-0.973-0.17-1.902-0.433-2.793-0.77l-46.86 20.085c-12.789 5.476-20.422 17.053-20.422 30.961 0 13.923 7.644 25.512 20.445 30.998l415.432 178.044c14.464 6.197 29.983 9.297 45.497 9.297 15.488 0 30.971-3.089 45.387-9.266l415.522-178.085c12.787-5.48 20.42-17.057 20.42-30.965 0-13.927-7.644-25.514-20.445-31zM461.938 617.232c0 4.464 17.212 17.368 50.059 17.368s50.059-12.903 50.059-17.368-17.212-17.368-50.059-17.368-50.059 12.905-50.059 17.368zM626.405 271.257c1.142 0 2.303 0.129 3.463 0.396 11.565 2.673 22.958 5.774 33.863 9.225 8.069 2.552 12.541 11.162 9.989 19.231s-11.16 12.546-19.233 9.991c-10.134-3.206-20.739-6.093-31.517-8.584-8.247-1.904-13.387-10.132-11.483-18.379 1.639-7.088 7.944-11.881 14.918-11.881z" />
<glyph unicode="&#xe92e;" glyph-name="girl-power" d="M990.052 520.645c22.527 49.582 33.948 102.324 33.948 156.762v101.932c0 46.389-50.546 75.203-90.351 52.046v23.243c0 46.593-50.914 75.395-90.737 51.842-3.322 30.066-28.883 53.53-59.821 53.53-26.227 0-48.59-16.864-56.817-40.319-33.596 22.653-80.815 6.103-91.637-34.97-68.626 0-131.765 12.477-195.281 41.341-49.584 22.527-102.326 33.948-156.764 33.948h-101.932c-46.389 0-75.203-50.55-52.046-90.351h-23.243c-46.593 0-75.395-50.914-51.842-90.737-30.066-3.324-53.53-28.885-53.53-59.821 0-26.229 16.864-48.592 40.321-56.819-23.019-34.146-5.293-80.709 34.938-91.577-0.184-30.346-1.428-56.665-8.587-93.145-1.596-8.129 3.702-16.014 11.831-17.61 8.131-1.596 16.014 3.7 17.61 11.831 7.499 38.202 8.909 65.614 9.139 96.779h168.78c11.149 0 18.41-11.753 13.414-21.719l-21.33-42.541c-14.672-29.341-5.993-64.55 20.646-83.72 14.606-10.493 33.778-11.383 49.304-2.064 74.057-56.345 119.496-100.93 177.411-158.881 5.227-5.225 5.893-13.368 1.592-19.352-10.517-14.616-29.841-19.378-45.927-11.335l-42.523 21.322c-29.916 15.004-65.174-6.767-65.174-40.233v-182.701c0-16.982-13.346-30.982-29.731-31.206-15.632-0.23-30.278 11.667-30.63 30.496l0.006 150.288c0 8.285-6.715 15.002-15.002 15.002-8.285 0-15.002-6.717-15.002-15.002l0.008-180.723c0-16.644-13.54-30.184-30.184-30.184s-30.184 13.542-30.184 30.184v180.721c0 8.285-6.717 15.002-15.002 15.002s-15.002-6.717-15.002-15.002l-0.006-135.546c0-16.64-13.536-30.176-30.176-30.176-16.644 0-30.184 13.542-30.184 30.184l0.006 165.657c0 8.285-6.717 15.002-15.002 15.002s-15.002-6.715-15.002-15.002l-0.008-90.371c0-16.632-13.53-30.164-30.162-30.164-16.644 0-30.184 13.532-30.184 30.164v101.932c0 50.128 10.517 98.696 31.262 144.355 5.845 12.872 11.143 26.011 15.748 39.053 2.758 7.813-1.338 16.382-9.151 19.14-7.811 2.756-16.382-1.338-19.14-9.151-4.317-12.225-9.289-24.553-14.774-36.634-22.531-49.574-33.952-102.316-33.952-156.754v-101.932c0-46.389 50.546-75.203 90.351-52.046v-23.243c0-46.593 50.92-75.395 90.735-51.842 3.324-30.066 28.885-53.53 59.823-53.53 26.229 0 48.592 16.864 56.817 40.321 34.158-23.023 80.735-5.285 91.587 34.968 68.254 0 131.437-12.305 195.333-41.341 49.582-22.527 102.324-33.948 156.762-33.948h14.822c8.285 0 15.002 6.717 15.002 15.002s-6.717 15.002-15.002 15.002h-14.822c-50.128 0-98.696 10.517-144.351 31.26-65.682 29.847-133.464 44.029-205.61 44.029v168.74c0 11.149 11.753 18.408 21.719 13.414l42.541-21.33c29.339-14.668 64.548-5.991 83.72 20.646 10.709 14.904 11.147 34.216 2.080 49.318 56.571 74.329 101.552 120.154 158.865 177.397 5.225 5.227 13.368 5.893 19.352 1.592 14.616-10.517 19.378-29.839 11.335-45.927l-21.322-42.523c-15.004-29.916 6.767-65.174 40.233-65.174h182.701c16.982 0 30.982-13.346 31.206-29.731 0.196-15.67-11.675-30.276-30.494-30.63l-150.29 0.006c-8.285 0-15.002-6.717-15.002-15.002s6.715-15.002 15.002-15.002l180.723 0.008c16.644 0 30.184-13.54 30.184-30.184s-13.542-30.184-30.184-30.184h-180.723c-8.285 0-15.002-6.717-15.002-15.002s6.715-15.002 15.002-15.002l135.546-0.006c16.64 0 30.176-13.536 30.176-30.176 0-16.644-13.542-30.184-30.184-30.184l-165.657 0.006c-8.285 0-15.002-6.715-15.002-15.002 0-8.285 6.715-15.002 15.002-15.002l90.371-0.008c16.632 0 30.164-13.53 30.164-30.162 0-16.644-13.532-30.184-30.164-30.184h-17.102c-8.285 0-15.002-6.717-15.002-15.002s6.717-15.002 15.002-15.002h17.102c46.389 0 75.203 50.546 52.046 90.351h23.243c46.593 0 75.395 50.92 51.842 90.735 30.066 3.324 53.53 28.885 53.53 59.823 0 26.229-16.864 48.592-40.321 56.819 22.997 34.116 5.343 80.719-34.968 91.585-0.004 72.070 14.612 136.512 41.337 195.329zM520.953 294.588c-41.931 41.909-89.931 88.952-162.351 144.457 39.707 39.673 87.976 88.696 144.441 162.349 39.287-39.359 87.868-87.358 162.357-144.443-39.649-39.611-87.896-88.604-144.447-162.363zM736.556 349.164l21.33 42.541c14.672 29.341 5.993 64.55-20.646 83.72-14.908 10.711-34.22 11.147-49.322 2.078-73.163 55.661-117.238 98.61-177.393 158.867-5.227 5.225-5.893 13.368-1.592 19.352 10.517 14.614 29.837 19.378 45.935 11.331l43.457-21.755c29.761-14.162 64.232 7.649 64.232 40.671v43.305c0 8.285-6.717 15.002-15.002 15.002s-15.002-6.717-15.002-15.002v-43.307c0-10.931-11.399-18.216-21.224-13.63l-43.035 21.547c-29.343 14.67-64.55 5.993-83.72-20.646-10.711-14.906-11.147-34.22-2.078-49.32-57.555-75.633-103.696-122.296-158.867-177.393-5.225-5.225-13.368-5.893-19.352-1.592-14.616 10.517-19.378 29.839-11.335 45.927l21.322 42.523c15.004 29.916-6.767 65.174-40.233 65.174h-182.701c-16.982 0-30.982 13.346-31.206 29.731-0.212 16.87 13.316 30.616 30.186 30.616l150.598 0.008c8.285 0 15.002 6.717 15.002 15.002s-6.715 15.002-15.002 15.002l-180.721-0.008c-16.644 0-30.184 13.54-30.184 30.184s13.542 30.184 30.184 30.184h180.721c8.285 0 15.002 6.717 15.002 15.002s-6.715 15.002-15.002 15.002l-135.616 0.004c-16.606 0.044-30.104 13.564-30.104 30.18 0 16.642 13.54 30.184 30.184 30.184l165.657-0.006c8.285 0 15.002 6.715 15.002 15.002s-6.715 15.002-15.002 15.002l-90.371 0.008c-16.632 0-30.164 13.53-30.164 30.162 0.002 16.642 13.534 30.184 30.166 30.184h101.932c50.128 0 98.696-10.517 144.351-31.26 66.606-30.268 134.484-44.029 205.626-44.029l-0.016-55.422c-0.002-8.285 6.713-15.004 14.998-15.006 8.287 0 15.004 6.711 15.006 14.998l0.020 70.248c0.442 16.528 13.75 30.128 29.711 30.35 15.59 0.238 30.278-11.645 30.63-30.474l-0.006-150.312c0-8.285 6.715-15.002 15.002-15.002 8.285 0 15.002 6.717 15.002 15.002l-0.008 180.723c0 16.644 13.542 30.184 30.184 30.184 16.644 0 30.184-13.542 30.184-30.184v-180.725c0-8.285 6.717-15.002 15.002-15.002s15.002 6.717 15.002 15.002l0.006 135.546c0 16.642 13.534 30.18 30.176 30.18 16.644 0 30.184-13.54 30.184-30.184l-0.006-165.661c0-8.285 6.717-15.002 15.002-15.002s15.002 6.715 15.002 15.002l0.008 90.371c0 16.666 13.556 30.168 30.162 30.168 16.644 0 30.184-13.532 30.184-30.164v-101.932c0-50.128-10.517-98.696-31.26-144.351-29.845-65.688-44.027-133.468-44.027-205.614h-168.74c-11.147 0-18.41 11.753-13.412 21.719z" />
<glyph unicode="&#xe92f;" glyph-name="checked" d="M512 960c-282.306 0-512-229.694-512-512s229.694-512 512-512 512 229.694 512 512-229.694 512-512 512zM798.155 582.737l-327.218-324.652c-19.248-19.248-50.045-20.531-70.576-1.283l-173.233 157.835c-20.531 19.248-21.815 51.328-3.85 71.86 19.248 20.531 51.328 21.815 71.86 2.566l137.303-125.754 292.571 292.571c20.531 20.531 52.612 20.531 73.143 0s20.531-52.612 0-73.143z" />
<glyph unicode="&#xe930;" glyph-name="down-arrow" d="M355.8 173.2l138.2-166.8c4.4-5.4 11-8.4 18-8.4s13.6 3 18 8.4l138.2 166.8c8.2 10 6.8 24.6-3 32.8-10 8.2-24.6 6.8-32.8-3l-97-117v788.6c0 12.8-10.4 23.4-23.4 23.4-12.8 0-23.4-10.4-23.4-23.4v-788.6l-97 117c-4.6 5.6-11.2 8.4-18 8.4-5.2 0-10.6-1.8-14.8-5.4-9.8-8.2-11.2-23-3-32.8z" />
<glyph unicode="&#xe931;" glyph-name="up-arrow1" d="M668.2 722.8l-138.2 166.8c-4.4 5.4-11 8.4-18 8.4s-13.6-3-18-8.4l-138.2-166.8c-8.2-10-6.8-24.6 3-32.8 10-8.2 24.6-6.8 32.8 3l97 117v-788.6c0-12.8 10.4-23.4 23.4-23.4 12.8 0 23.4 10.4 23.4 23.4v788.6l97-117c4.6-5.6 11.2-8.4 18-8.4 5.2 0 10.6 1.8 14.8 5.4 9.8 8.2 11.2 23 3 32.8z" />
<glyph unicode="&#xe932;" glyph-name="money" d="M580 760c7.732 0 14 6.268 14 14s-6.268 14-14 14v0h-54v28c0 7.732-6.268 14-14 14s-14-6.268-14-14v0-28h-19.88c-26.51 0-48-21.49-48-48s21.49-48 48-48v0h19.88v-40h-54c-7.732 0-14-6.268-14-14s6.268-14 14-14v0h54v-28c0-7.732 6.268-14 14-14s14 6.268 14 14v0 28h19.88c26.51 0 48 21.49 48 48s-21.49 48-48 48v0h-19.88v40zM545.88 692c11.046 0 20-8.954 20-20s-8.954-20-20-20v0h-19.88v40zM498 720h-19.88c-11.046 0-20 8.954-20 20s8.954 20 20 20v0h19.88zM902 570h-180.24c25.227 38.391 40.24 85.451 40.24 136.017 0 138.071-111.929 250-250 250s-250-111.929-250-250c0-50.566 15.013-97.626 40.824-136.966l-0.584 0.949h-180.24c-29.823 0-54-24.177-54-54v0-60c0-29.823 24.177-54 54-54v0h26v-408c0-29.823 24.177-54 54-54v0h620c29.823 0 54 24.177 54 54v0 408h26c29.823 0 54 24.177 54 54v0 60c0 29.823-24.177 54-54 54v0zM290 706c0 0.017 0 0.038 0 0.058 0 122.607 99.393 222 222 222s222-99.393 222-222c0-51.492-17.531-98.889-46.949-136.549l0.369 0.491h-54.38c37.502 33.486 61 81.975 61 135.952 0 100.516-81.484 182-182 182s-182-81.484-182-182c0-53.977 23.498-102.466 60.822-135.796l0.178-0.156h-54.46c-29.017 37.164-46.54 84.532-46.58 135.991v0.009zM439.74 570c-49.002 26.427-81.74 77.388-81.74 135.994 0 85.052 68.948 154 154 154s154-68.948 154-154c0-58.607-32.738-109.567-80.923-135.591l-0.817-0.403zM848-6c0-14.359-11.641-26-26-26v0h-620c-14.359 0-26 11.641-26 26v0 408h672zM928 456c0-14.359-11.641-26-26-26v0h-780c-14.359 0-26 11.641-26 26v0 60c0 14.359 11.641 26 26 26v0h780c14.359 0 26-11.641 26-26v0zM276 212h32v-67c0-7.732 6.268-14 14-14v0h380c7.732 0 14 6.268 14 14v0 67h32c7.732 0 14 6.268 14 14s-6.268 14-14 14v0h-472c-7.732 0-14-6.268-14-14s6.268-14 14-14v0zM688 159h-352v52h352z" />
<glyph unicode="&#xe933;" glyph-name="healthy-food" d="M810.044 635.733c31.392 0.069 58.81 17.019 73.665 42.251l0.218 0.401c1.443 2.451 2.295 5.4 2.295 8.548s-0.852 6.097-2.339 8.629l0.044-0.080c-15.027 25.678-42.472 42.652-73.883 42.652s-58.856-16.974-73.665-42.25l-0.218-0.403c-1.443-2.451-2.295-5.4-2.295-8.548s0.852-6.097 2.339-8.629l-0.044 0.080c15.073-25.632 42.49-42.582 73.872-42.652h0.010zM810.044 704c15.124-0.035 28.709-6.598 38.090-17.020l0.041-0.046c-9.404-10.494-22.999-17.067-38.13-17.067s-28.726 6.573-38.088 17.019l-0.043 0.048c9.422 10.468 23.006 17.031 38.123 17.067h0.006zM920.887 83.684c-11.213 9.197-24.454 19.008-39.467 29.265 74.159 44.205 125.513 137.011 125.513 232.651 0 86.69-34.159 190.581-110.473 227.26-31.561 15.168-80.115 23.040-143.881-11.906-3.049 30.477-12.309 55.955-21.026 79.876-16.471 45.193-29.481 80.887 0.51 140.87l-30.528 15.266c-36.565-73.131-19.021-121.269-2.052-167.825 9.867-27.072 19.921-54.692 19.84-89.489-0.853-0.617-1.679-1.197-2.528-1.828-46.846 34.846-86.839 47.1-119.467 47.853v101.257c-0.021 3.859-1.299 7.416-3.446 10.285l0.032-0.045-98.982 131.981v96.713c0 9.426-7.641 17.067-17.067 17.067v0h-307.2c-9.426 0-17.067-7.641-17.067-17.067v0-96.713l-98.987-131.981c-2.114-2.824-3.392-6.381-3.413-10.235v-369.383c-15.087-9.255-26.207-23.726-30.928-40.85l-0.115-0.487c-7.209-24.87-5.434-61.013 43.964-92.019 10.239-6.409 22.102-12.454 34.498-17.459l1.555-0.555c-50.588-27.503-56.644-61.227-56.463-76.521 0.373-31.255 24.791-58.453 62.208-69.303 5.028-1.49 10.805-2.348 16.782-2.348 0.113 0 0.226 0 0.339 0.001h-0.017c30.752 0 68.717 20.802 113.171 62.080 13.365 12.41 25.6 25.043 35.823 36.205 1.949-15.98 7.559-30.351 15.963-42.662l-0.213 0.331c20.723-30.69 60.265-52.683 132.213-73.536 69.152-20.043 199.838-39.040 310.741-45.186 25.828-1.429 50.108-2.133 72.439-2.133 1.71-0.016 3.732-0.024 5.755-0.024 26.534 0 52.712 1.521 78.453 4.48l-3.142-0.294c52.41 6.468 79.945 20.267 86.654 43.415s-9.175 49.504-49.995 82.995zM714.88 499.36c-2.827-13.046-6.069-24.085-9.994-34.795l0.579 1.807c-14.19 3.315-25.879 12.151-32.902 24.067l-0.131 0.24-29.547-17.092c15.036-25.68 42.489-42.654 73.907-42.654s58.871 16.974 73.689 42.252l0.218 0.402-29.547 17.092c-4.408-7.497-10.422-13.61-17.6-18.006l-0.224-0.128c4.376 14.097 7.705 30.654 9.347 47.703l0.080 1.031c48.079 31.194 92.241 38.449 128.911 20.823 53.66-25.794 91.132-106.596 91.132-196.503 0-89.050-52.783-178.144-124.015-211.388-17.321 10.805-36.25 21.952-56.533 33.28-96.998 54.116-217.6 107.947-286.743 127.985-14.897 4.318-28.629 7.838-41.367 10.596-2.102 11.869-3.316 25.547-3.341 39.504v0.023c0 89.907 37.472 170.709 91.125 196.495 43.021 20.678 96.346 7.138 154.212-39.155 2.406-1.923 5.396-3.213 8.666-3.573l0.076-0.007zM85.333 669.867h273.067v-102.4h-273.067zM392.533 669.867h170.667v-87.753c-9.948-2.411-18.631-5.584-26.83-9.594l0.769 0.34c-76.314-36.678-110.473-140.57-110.473-227.26 0.015-11.853 0.785-23.511 2.265-34.946l-0.144 1.365c-7.065 0.901-15.24 1.415-23.534 1.415-4.475 0-8.916-0.15-13.316-0.444l0.597 0.032zM409.6 704l68.267 91.023 68.267-91.023zM187.733 908.8h273.067v-68.267h-273.067zM179.2 806.4h264.533l-76.8-102.4h-264.533zM85.333 533.333h273.067v-227.684c-1.329-0.516-2.65-1.050-3.945-1.617-14.355-6.365-26.394-15.628-35.814-27.121l-0.134-0.169c-2.677 14.891-6.246 32.079-10.899 49.69-18.507 70.042-44.8 110.458-78.15 120.122-37.419 10.846-72.602 0.917-89.626-25.297-8.32-12.817-21.25-44.561 6.793-94.852-11.957 2.384-25.794 3.85-39.937 4.051l-0.17 0.002h-0.64c-0.152 0.001-0.333 0.001-0.513 0.001-7.062 0-14.005-0.51-20.794-1.495l0.774 0.092zM115.413 53.146c-22.639 6.56-37.389 21.056-37.579 36.926-0.213 18.084 19.627 43.75 75.977 61.545 6.971 2.252 11.924 8.684 11.924 16.273 0 7.733-5.143 14.265-12.196 16.361l-0.121 0.031c-77.207 22.381-110.080 49.344-100.48 82.432 5.709 19.699 22.97 29.517 52.297 29.517 19.936 0 45.453-4.54 76.702-13.596 1.423-0.428 3.058-0.675 4.751-0.675 9.426 0 17.067 7.641 17.067 17.067 0 4.205-1.521 8.054-4.042 11.029l0.020-0.025c-38.095 45.169-41.141 77.466-31.287 92.631 8.646 13.31 28.862 17.668 51.501 11.108 36.947-10.709 63.52-112.877 71.061-183.974l-17.156-59.189c-44.39-56.047-121.481-128.166-158.428-117.461zM938.112 10.163c-2.385-8.23-45.257-29.726-205.5-20.855-26.895 1.493-54.944 3.742-82.942 6.581l16.666 57.504-32.783 9.502-18.321-63.215c-72.96 8.659-142.159 20.883-185.747 33.517-62.78 18.195-97.764 36.655-113.429 59.853-14.293 21.167-14.545 50.37-0.853 97.649s29.534 71.823 52.93 82.065c9.941 4.352 21.95 6.549 36.591 6.549 23.13 0 52.821-5.487 91.266-16.627 5.137-1.493 10.603-3.2 16.303-5.060l-42.667-147.221 32.783-9.502 42.123 145.34c67.13-25.214 156.113-66.743 231.074-108.567 18.229-10.17 34.487-19.706 49.007-28.629l-17.636-60.875 32.783-9.504 14.842 51.2c71.029-47.428 85.346-73.353 83.511-79.703z" />
<glyph unicode="&#xe934;" glyph-name="charity-1" d="M672 448c0 88.366-71.634 160-160 160s-160-71.634-160-160c0-88.366 71.634-160 160-160v0c88.323 0.106 159.894 71.677 160 159.99v0.010zM384 448c0 70.692 57.308 128 128 128s128-57.308 128-128c0-70.692-57.308-128-128-128v0c-70.659 0.084-127.916 57.341-128 127.992v0.008zM528 368v2.322c18.693 5.938 32.001 23.14 32.001 43.45 0 17.75-10.164 33.126-24.99 40.625l-0.26 0.119-31.187 15.594c-4.52 2.291-7.565 6.904-7.565 12.227 0 7.546 6.118 13.664 13.664 13.664 0.003 0 0.007 0 0.010 0h4.655c7.545-0.015 13.657-6.127 13.672-13.671v-2.329c0-8.837 7.163-16 16-16s16 7.163 16 16v0 2.328c-0.071 20.261-13.353 37.401-31.677 43.261l-0.323 0.089v2.322c0 8.837-7.163 16-16 16s-16-7.163-16-16v0-2.322c-18.693-5.938-32.001-23.14-32.001-43.45 0-17.75 10.164-33.126 24.99-40.625l0.26-0.119 31.187-15.594c4.52-2.291 7.565-6.904 7.565-12.227 0-7.546-6.118-13.664-13.664-13.664-0.003 0-0.007 0-0.010 0h-4.655c-7.545 0.015-13.657 6.127-13.672 13.671v2.329c0 8.837-7.163 16-16 16s-16-7.163-16-16v0-2.328c0.071-20.261 13.353-37.401 31.677-43.261l0.323-0.089v-2.322c0-8.837 7.163-16 16-16s16 7.163 16 16v0zM855.157 238.312l-26.048 13.032c-16.661 8.524-36.345 13.519-57.195 13.519-11.752 0-23.134-1.587-33.942-4.558l0.897 0.21-188.674-50.31c-5.995 19.246-21.32 33.916-40.547 38.879l-0.399 0.087-217.374 54.349c-1.17 0.315-2.514 0.496-3.899 0.496-1.221 0-2.41-0.141-3.55-0.406l0.105 0.021-124.531-27.68v28.050c0 8.837-7.163 16-16 16v0h-96c-8.837 0-16-7.163-16-16v0-320c0-8.837 7.163-16 16-16v0h96c8.837 0 16 7.163 16 16v0 34.448l79.734 13.28 237.12-47.422c0.945-0.194 2.032-0.305 3.145-0.306h0.001c0.001 0 0.002 0 0.004 0 3.074 0 5.946 0.866 8.385 2.368l-0.069-0.040 368 224c4.642 2.856 7.69 7.908 7.69 13.673 0 6.229-3.559 11.626-8.754 14.269l-0.091 0.042zM128 0h-64v288h64zM477.016 16.906l-233.875 46.774c-0.945 0.191-2.032 0.3-3.144 0.3-0.924 0-1.83-0.075-2.712-0.22l0.096 0.013-77.381-12.893v192.28l127.781 28.403 213.72-53.422c11.282-2.908 19.484-12.992 19.484-24.991 0-14.232-11.537-25.77-25.77-25.77-1.779 0-3.516 0.18-5.194 0.524l0.166-0.028-119.040 23.813c-0.901 0.18-1.936 0.283-2.995 0.283-8.837 0-16-7.163-16-16 0-7.673 5.401-14.084 12.608-15.64l0.105-0.019 119.062-23.813c3.401-0.715 7.309-1.125 11.313-1.125 26.16 0 48.236 17.484 55.181 41.404l0.101 0.406 196.608 52.426c7.428 2.068 15.957 3.257 24.764 3.257 15.643 0 30.409-3.75 43.45-10.399l-0.543 0.251 0.187-0.093zM976 928h-96c-8.837 0-16-7.163-16-16v0-34.448l-79.734-13.28-237.125 47.408c-0.932 0.19-2.004 0.299-3.101 0.299-3.085 0-5.968-0.861-8.424-2.356l0.072 0.041-368-224c-4.642-2.856-7.69-7.908-7.69-13.673 0-6.229 3.559-11.626 8.754-14.269l0.091-0.042 26.048-13.032c16.663-8.522 36.348-13.516 57.2-13.516 11.75 0 23.13 1.586 33.937 4.555l-0.897-0.21 188.682 50.31c5.994-19.245 21.319-33.915 40.545-38.879l0.399-0.087 217.368-54.341c1.149-0.305 2.467-0.48 3.827-0.48 0.017 0 0.034 0 0.051 0h-0.003c1.229 0 2.426 0.137 3.577 0.395l-0.109-0.020 124.531 27.675v-28.050c0-8.837 7.163-16 16-16v0h96c8.837 0 16 7.163 16 16v0 320c0 8.837-7.163 16-16 16v0zM736.219 624.437l-213.718 53.422c-11.292 2.902-19.502 12.991-19.502 24.998 0 8.903 4.514 16.752 11.379 21.382l0.092 0.058c3.978 2.728 8.896 4.357 14.194 4.357 1.823 0 3.602-0.193 5.316-0.559l-0.166 0.030 119.040-23.813c0.988-0.217 2.123-0.341 3.286-0.341 8.837 0 16 7.163 16 16 0 7.777-5.549 14.258-12.904 15.701l-0.101 0.017-119.062 23.811c-3.357 0.695-7.216 1.093-11.167 1.093-26.164 0-48.252-17.453-55.257-41.352l-0.102-0.407-196.67-52.443c-7.421-2.059-15.942-3.242-24.74-3.242-15.649 0-30.424 3.744-43.477 10.385l0.545-0.252-0.187 0.093 337.968 205.72 233.875-46.782c0.943-0.195 2.027-0.306 3.138-0.306 0.926 0 1.834 0.077 2.718 0.226l-0.095-0.013 77.381 12.901v-192.28zM960 608h-64v288h64z" />
<glyph unicode="&#xe935;" glyph-name="package" d="M856 373.6v298.4c0 0.019 0 0.041 0 0.064 0 5.891-3.184 11.039-7.925 13.816l-0.076 0.041-388 224c-2.295 1.348-5.054 2.144-8 2.144s-5.705-0.796-8.076-2.184l0.076 0.041-388-224c-4.816-2.818-8-7.965-8-13.856 0-0.022 0-0.045 0-0.067v0.003-448c0-0.019 0-0.041 0-0.064 0-5.891 3.184-11.039 7.925-13.816l0.076-0.041 388-224c2.295-1.348 5.054-2.144 8-2.144s5.705 0.796 8.076 2.184l-0.076-0.041 145.76 84.16c37.424-51.975 97.763-85.42 165.914-85.42 112.578 0 203.84 91.262 203.84 203.84 0 82.011-48.431 152.71-118.253 185.056l-1.26 0.524zM452 877.6l356-205.6-178.56-103.040-330.56 220.16zM452 466.4l-356 205.6 172 99.36 330.4-220.32zM80 644.32l356-205.6v-411.040l-356 205.6zM468 27.68v411.040l144 83.68v-124.64c0-8.837 7.163-16 16-16s16 7.163 16 16v0 143.040l179.2 103.52v-259.36c-15.581 4.428-33.481 6.995-51.974 7.040h-0.026c-112.266-0.296-203.16-91.373-203.16-203.679 0-32.996 7.846-64.159 21.774-91.726l-0.534 1.165zM772 16c-94.993 0-172 77.007-172 172s77.007 172 172 172c94.993 0 172-77.007 172-172v0c-0.091-94.956-77.044-171.909-171.991-172h-0.009zM848 271.040l-99.2-130.88-52 61.12c-2.98 3.563-7.427 5.813-12.4 5.813-8.91 0-16.133-7.223-16.133-16.133 0-3.937 1.41-7.545 3.753-10.345l-0.021 0.025 64-76.48c2.952-3.437 7.303-5.6 12.159-5.6 0 0 0.001 0 0.001 0v0c5.036 0.158 9.466 2.619 12.291 6.36l0.029 0.040 111.2 146.72c4.327 2.909 7.136 7.787 7.136 13.321 0 8.837-7.163 16-16 16-6.659 0-12.368-4.068-14.777-9.855l-0.039-0.106z" />
<glyph unicode="&#xe936;" glyph-name="plus" d="M984 488h-432v432c0 22.092-17.908 40-40 40s-40-17.908-40-40v-432h-432c-22.092 0-40-17.908-40-40s17.908-40 40-40h432v-432c0-22.092 17.908-40 40-40s40 17.908 40 40v432h432c22.092 0 40 17.908 40 40s-17.908 40-40 40z" />
<glyph unicode="&#xe937;" glyph-name="diagonal-arrow" d="M192 736v-320c0-17.673 14.327-32 32-32s32 14.327 32 32v0 242.752l521.376-521.376c5.827-6.027 13.985-9.769 23.017-9.769 17.673 0 32 14.327 32 32 0 9.032-3.742 17.19-9.76 23.009l-521.385 521.385h242.752c17.673 0 32 14.327 32 32s-14.327 32-32 32v0h-320c-17.673 0-32-14.327-32-32v0z" />
<glyph unicode="&#xe938;" glyph-name="diagonal-arrow1" d="M800 768h-320c-17.673 0-32-14.327-32-32s14.327-32 32-32v0h242.752l-521.376-521.376c-6.027-5.827-9.769-13.985-9.769-23.017 0-17.673 14.327-32 32-32 9.032 0 17.19 3.742 23.009 9.76l521.385 521.385v-242.752c0-17.673 14.327-32 32-32s32 14.327 32 32v0 320c0 17.673-14.327 32-32 32v0z" />
<glyph unicode="&#xe939;" glyph-name="clock" d="M512 960c-282.312 0-512-229.688-512-512s229.688-512 512-512 512 229.688 512 512-229.688 512-512 512zM512 0c-247.032 0-448 200.968-448 448s200.968 448 448 448 448-200.968 448-448-200.968-448-448-448zM544 767.999h-64v-333.249l201.375-201.375 45.25 45.25-182.625 182.625z" />
<glyph unicode="&#xe93a;" glyph-name="supermarket-left" d="M141.734 858.112h-39.816c-56.198 0-101.918-45.72-101.918-101.918v-283.452c0-27.226 10.602-52.818 29.854-72.068l400.878-400.876c19.25-19.252 44.844-29.854 72.068-29.854s52.818 10.602 72.068 29.854l40.734 40.734c7.488-1.726 15.218-2.64 23.090-2.64 27.224 0 52.818 10.602 72.068 29.854l283.44 283.446c19.866 19.868 29.8 45.968 29.8 72.066s-9.934 52.198-29.804 72.066l-400.88 400.88c-19.252 19.252-44.844 29.854-72.068 29.854h-283.44c-44.288 0-82.050-28.406-96.074-67.946zM526.822 47.842c-6.416-6.416-14.948-9.952-24.024-9.952s-17.604 3.536-24.024 9.952l-400.878 400.878c-6.414 6.418-9.95 14.948-9.95 24.024v283.448c0 18.732 15.24 33.972 33.972 33.972h33.972v-249.476c0-27.226 10.602-52.818 29.854-72.068l390.928-390.924-29.85-29.854zM545.272 848.16l400.88-400.88c13.248-13.25 13.244-34.8 0-48.044l-283.44-283.448c-6.416-6.416-14.948-9.952-24.024-9.952s-17.604 3.536-24.024 9.952l-400.88 400.878c-6.414 6.418-9.95 14.948-9.95 24.024v283.448c0 18.732 15.24 33.972 33.972 33.972l283.44 0.002c9.076 0 17.608-3.536 24.026-9.952zM271.782 688.248c0-56.198 45.72-101.918 101.918-101.918s101.918 45.72 101.918 101.918-45.72 101.918-101.918 101.918-101.918-45.72-101.918-101.918zM407.674 688.248c0-18.732-15.24-33.972-33.972-33.972s-33.972 15.24-33.972 33.972c0 18.732 15.24 33.972 33.972 33.972s33.972-15.24 33.972-33.972z" />
<glyph unicode="&#xe93b;" glyph-name="supermarket" d="M922.112 818.266v39.816c0 56.198-45.72 101.918-101.918 101.918h-283.452c-27.226 0-52.818-10.602-72.068-29.854l-400.876-400.878c-19.252-19.25-29.854-44.844-29.854-72.068s10.602-52.818 29.854-72.068l40.734-40.734c-1.726-7.488-2.64-15.218-2.64-23.090 0-27.224 10.602-52.818 29.854-72.068l283.446-283.44c19.868-19.866 45.968-29.8 72.066-29.8s52.198 9.934 72.066 29.804l400.88 400.88c19.252 19.252 29.854 44.844 29.854 72.068v283.44c0 44.288-28.406 82.050-67.946 96.074zM111.842 433.178c-6.416 6.416-9.952 14.948-9.952 24.024s3.536 17.604 9.952 24.024l400.878 400.878c6.418 6.414 14.948 9.95 24.024 9.95h283.448c18.732 0 33.972-15.24 33.972-33.972v-33.972h-249.476c-27.226 0-52.818-10.602-72.068-29.854l-390.924-390.928-29.854 29.85zM912.16 414.728l-400.88-400.88c-13.25-13.248-34.8-13.244-48.044 0l-283.448 283.44c-6.416 6.416-9.952 14.948-9.952 24.024s3.536 17.604 9.952 24.024l400.878 400.88c6.418 6.414 14.948 9.95 24.024 9.95h283.448c18.732 0 33.972-15.24 33.972-33.972v-283.44h0.002c0-9.076-3.536-17.608-9.952-24.026zM752.248 688.218c-56.198 0-101.918-45.72-101.918-101.918s45.72-101.918 101.918-101.918 101.918 45.72 101.918 101.918-45.72 101.918-101.918 101.918zM752.248 552.326c-18.732 0-33.972 15.24-33.972 33.972s15.24 33.972 33.972 33.972c18.732 0 33.972-15.24 33.972-33.972s-15.24-33.972-33.972-33.972z" />
<glyph unicode="&#xe93c;" glyph-name="email" d="M597.578 332.614c-25.476-16.984-55.068-25.962-85.578-25.962-30.508 0-60.1 8.978-85.576 25.962l-419.606 279.746c-2.328 1.552-4.596 3.17-6.818 4.834v-458.394c0-52.556 42.65-94.266 94.266-94.266h835.466c52.556 0 94.266 42.65 94.266 94.266v458.396c-2.226-1.668-4.498-3.29-6.832-4.844zM40.1 662.284l419.606-279.748c15.884-10.59 34.088-15.884 52.292-15.884 18.206 0 36.412 5.296 52.296 15.884l419.606 279.748c25.11 16.73 40.1 44.73 40.1 74.95 0 51.962-42.274 94.234-94.234 94.234h-835.532c-51.96-0.002-94.234-42.274-94.234-94.284 0-30.17 14.992-58.17 40.1-74.9z" />
<glyph unicode="&#xe93d;" glyph-name="business-right" d="M931.52 470.4c17.496 17.315 28.365 41.297 28.48 67.818v261.782c0 53.019-42.981 96-96 96v0h-261.44c-26.5-0.024-50.483-10.782-67.839-28.159l-0.001-0.001-438.72-438.080c-19.988-19.98-32.351-47.586-32.351-78.080s12.363-58.1 32.35-78.080l241.6-241.6c19.98-19.988 47.586-32.351 78.080-32.351s58.1 12.363 78.080 32.35v0zM384 77.76l-242.24 242.24c-8.167 8.496-13.197 20.061-13.197 32.8s5.030 24.304 13.212 32.816l-0.015-0.016 437.76 436.8c5.782 5.896 13.819 9.562 22.713 9.6h261.767c17.673 0 32-14.327 32-32v0-261.44c0-0.055 0.001-0.12 0.001-0.185 0-8.791-3.545-16.753-9.283-22.537l0.002 0.002-438.72-438.080c-8.369-7.784-19.627-12.562-32-12.562s-23.631 4.777-32.029 12.588l0.029-0.027zM828.48 764.8c-17.377 17.398-41.394 28.16-67.924 28.16-53.019 0-96-42.981-96-96s42.981-96 96-96c26.531 0 50.548 10.762 67.923 28.159l0.001 0.001c17.347 17.368 28.076 41.351 28.076 67.84s-10.728 50.472-28.077 67.841l0.001-0.001zM737.92 674.24c-5.846 5.8-9.466 13.837-9.466 22.72s3.619 16.92 9.463 22.718l0.002 0.002c5.784 5.751 13.757 9.305 22.56 9.305s16.776-3.555 22.562-9.307l-0.002 0.002c5.896-5.782 9.562-13.819 9.6-22.713v-0.007c-0.038-8.901-3.704-16.938-9.595-22.715l-0.005-0.005c-5.75-5.705-13.658-9.242-22.393-9.28h-0.007c-0.055 0-0.12-0.001-0.185-0.001-8.791 0-16.753 3.545-22.537 9.283l0.002-0.002z" />
<glyph unicode="&#xe93e;" glyph-name="business" d="M489.6 867.52c-17.315 17.496-41.297 28.365-67.818 28.48h-261.782c-53.019 0-96-42.981-96-96v0-261.44c0.024-26.5 10.782-50.483 28.159-67.839l0.001-0.001 438.080-438.72c19.98-19.988 47.586-32.351 78.080-32.351s58.1 12.363 78.080 32.35l241.6 241.6c19.988 19.98 32.351 47.586 32.351 78.080s-12.363 58.1-32.35 78.080v0zM882.24 320l-242.24-242.24c-8.496-8.167-20.061-13.197-32.8-13.197s-24.304 5.030-32.816 13.212l0.016-0.015-436.8 437.76c-5.896 5.782-9.562 13.819-9.6 22.713v261.767c0 17.673 14.327 32 32 32v0h261.44c0.055 0 0.12 0.001 0.185 0.001 8.791 0 16.753-3.545 22.537-9.283l-0.002 0.002 438.080-438.72c7.784-8.369 12.562-19.627 12.562-32s-4.777-23.631-12.588-32.029l0.027 0.029zM195.2 764.48c-17.398-17.377-28.16-41.394-28.16-67.924 0-53.019 42.981-96 96-96s96 42.981 96 96c0 26.531-10.762 50.548-28.159 67.923l-0.001 0.001c-17.368 17.347-41.351 28.076-67.84 28.076s-50.472-10.728-67.841-28.077l0.001 0.001zM285.76 673.92c-5.8-5.846-13.837-9.466-22.72-9.466s-16.92 3.619-22.718 9.463l-0.002 0.002c-5.751 5.784-9.305 13.757-9.305 22.56s3.555 16.776 9.307 22.562l-0.002-0.002c5.782 5.896 13.819 9.562 22.713 9.6h0.007c8.901-0.038 16.938-3.704 22.715-9.595l0.005-0.005c5.705-5.75 9.242-13.658 9.28-22.393v-0.007c0-0.055 0.001-0.12 0.001-0.185 0-8.791-3.545-16.753-9.283-22.537l0.002 0.002z" />
<glyph unicode="&#xe93f;" glyph-name="share" d="M944 143.2c-72.16 302.24-244.32 473.76-512 509.76v115.040c0 0.026 0 0.056 0 0.087 0 8.837-7.163 16-16 16-3.762 0-7.221-1.298-9.953-3.472l0.033 0.025-320-251.68c-3.722-2.956-6.088-7.482-6.088-12.56s2.366-9.604 6.055-12.535l0.033-0.025 320-251.52c2.699-2.148 6.158-3.447 9.92-3.447 8.837 0 16 7.163 16 16 0 0.030 0 0.061 0 0.091v-0.005 128c138.93-15.806 263.426-67.458 367.040-145.382l-1.92 1.382c45.388-33.668 84.179-72.866 116.368-117.17l1.072-1.55c2.885-4.447 7.823-7.35 13.439-7.36h0.001c2.259 0.043 4.397 0.51 6.356 1.323l-0.116-0.043c6.070 2.364 10.292 8.163 10.292 14.947 0 1.455-0.194 2.865-0.558 4.205l0.026-0.112z" />
<glyph unicode="&#xe940;" glyph-name="warning" d="M1002.724 192.1l-361.73 664.952c-58.118 97.842-199.792 97.972-257.988 0l-361.712-664.952c-59.412-99.978 12.518-226.582 128.964-226.582h723.472c116.348 0 188.406 126.502 128.994 226.582zM512 85.518c-33.076 0-60 26.924-60 60s26.924 60 60 60c33.076 0 60-26.924 60-60s-26.924-60-60-60zM572 325.518c0-33.076-26.924-60-60-60s-60 26.924-60 60v300c0 33.076 26.924 60 60 60s60-26.924 60-60v-300z" />
<glyph unicode="&#xe941;" glyph-name="user" d="M512 960c-148.878 0-270-121.122-270-270s121.122-270 270-270 270 121.122 270 270-121.122 270-270 270zM512 480c-115.794 0-210 94.206-210 210s94.206 210 210 210c115.794 0 210-94.206 210-210s-94.206-210-210-210zM847.932 243.61c-73.92 75.056-171.914 116.39-275.932 116.39h-120c-104.016 0-202.012-41.334-275.932-116.39-73.558-74.688-114.068-173.276-114.068-277.61 0-16.568 13.432-30 30-30h840c16.568 0 30 13.432 30 30 0 104.334-40.51 202.922-114.068 277.61zM123.32-4c15.030 170.172 156.702 304 328.68 304h120c171.978 0 313.65-133.828 328.68-304h-777.36z" />
<glyph unicode="&#xe942;" glyph-name="fax" d="M896 789.333h-85.333c-35.33 0.040-63.96 28.67-64 63.996v85.337h-298.667c-23.564 0-42.667-19.103-42.667-42.667v0-213.333h490.667zM810.667 832h85.333l-106.667 106.667v-85.333c0-11.782 9.551-21.333 21.333-21.333v0zM170.667 725.333h106.667c23.564 0 42.667-19.103 42.667-42.667v-576c0-23.564-19.103-42.667-42.667-42.667h-106.667c-23.564 0-42.667 19.103-42.667 42.667v576c0 23.564 19.103 42.667 42.667 42.667zM469.333 512h405.333v-85.333h-405.333zM938.667 640h-576v-533.333c-0.056-47.106-38.227-85.277-85.328-85.333h-106.672c-47.106 0.056-85.277 38.227-85.333 85.328v533.338c-35.33-0.040-63.96-28.67-64-63.996v-554.671c0.040-35.33 28.67-63.96 63.996-64h853.337c35.33 0.040 63.96 28.67 64 63.996v554.671c-0.040 35.33-28.67 63.96-63.996 64h-0.004zM533.333 64h-106.667v85.333h106.667zM533.333 234.667h-106.667v85.333h106.667zM725.333 64h-106.667v85.333h106.667zM725.333 234.667h-106.667v85.333h106.667zM917.333 64h-106.667v85.333h106.667zM917.333 234.667h-106.667v85.333h106.667zM917.333 405.333c0-11.782-9.551-21.333-21.333-21.333v0h-448c-11.782 0-21.333 9.551-21.333 21.333v0 128c0 11.782 9.551 21.333 21.333 21.333v0h448c11.782 0 21.333-9.551 21.333-21.333v0z" />
<glyph unicode="&#xe943;" glyph-name="view" d="M1017.492 467.917c-9.148 12.514-227.114 306.413-505.497 306.413s-496.359-293.899-505.497-306.401c-8.664-11.872-8.664-27.974 0-39.846 9.138-12.514 227.114-306.413 505.497-306.413s496.349 293.901 505.497 306.403c8.676 11.87 8.676 27.984 0 39.844zM511.995 189.186c-205.058 0-382.661 195.066-435.235 258.837 52.506 63.826 229.736 258.791 435.235 258.791 205.048 0 382.639-195.032 435.235-258.837-52.506-63.824-229.736-258.791-435.235-258.791zM511.995 650.549c-111.684 0-202.55-90.866-202.55-202.55s90.866-202.55 202.55-202.55 202.55 90.866 202.55 202.55-90.866 202.55-202.55 202.55zM511.995 312.967c-74.46 0-135.032 60.574-135.032 135.032s60.574 135.032 135.032 135.032 135.032-60.574 135.032-135.032-60.572-135.032-135.032-135.032z" />
<glyph unicode="&#xe944;" glyph-name="link" d="M424.522 179.515l-120.663-120.663c-50.024-50.024-131.035-50.024-181.017-0.010-49.992 49.992-49.992 131.011-0.010 180.993l241.367 241.367c49.982 49.984 131.001 49.984 180.983 0 16.662-16.662 43.678-16.662 60.34 0s16.662 43.678 0 60.34c-83.308 83.308-218.355 83.308-301.664 0l-241.365-241.365c-83.308-83.308-83.308-218.355 0-301.664 83.298-83.352 218.355-83.352 301.708 0l120.663 120.663c16.662 16.662 16.662 43.678 0 60.34s-43.68 16.66-60.342-0.002zM961.508 897.52c-83.308 83.308-218.399 83.308-301.708 0l-144.769-144.769c-16.662-16.662-16.662-43.678 0-60.34s43.678-16.662 60.34 0l144.769 144.769c49.982 49.984 131.043 49.984 181.027 0 49.982-49.982 49.982-131.001 0-180.983l-265.474-265.476c-49.984-49.984-131.001-49.984-180.983 0-16.662 16.662-43.678 16.662-60.34 0s-16.662-43.678 0-60.34c83.308-83.308 218.355-83.308 301.664 0l265.474 265.474c83.308 83.308 83.308 218.357 0 301.666z" />
</font>
</defs>
</svg>
